<svg xmlns="http://www.w3.org/2000/svg" viewBox="0 0 128 104"><ellipse cx="64" cy="94" rx="39" ry="5" fill="#000" opacity=".16"/><path fill="#2d4046" stroke="#2d4046" stroke-width=".25" d="M84.3,56.0L58.3,53.2L64.0,69.1Z"/><path fill="#2d4046" stroke="#2d4046" stroke-width=".25" d="M58.3,53.2L35.6,59.7L64.0,69.1Z"/><path fill="#552a1e" stroke="#552a1e" stroke-width=".25" d="M49.7,57.3L39.0,64.3L60.5,55.8Z"/><path fill="#6e7b7e" stroke="#6e7b7e" stroke-width=".25" d="M62.4,42.1L61.4,42.4L29.5,63.1Z"/><path fill="#525c5f" stroke="#525c5f" stroke-width=".25" d="M63.4,44.4L63.4,43.1L31.5,63.8Z"/><path fill="#677376" stroke="#677376" stroke-width=".25" d="M63.4,43.1L62.4,42.1L30.5,62.8Z"/><path fill="#53291e" stroke="#53291e" stroke-width=".25" d="M78.0,57.1L60.5,55.8L84.8,63.9Z"/><path fill="#2d4046" stroke="#2d4046" stroke-width=".25" d="M98.4,66.5L84.3,56.0L64.0,69.1Z"/><path fill="#626e71" stroke="#626e71" stroke-width=".25" d="M50.9,64.5L46.4,62.4L48.1,66.2Z"/><path fill="#6e7b7e" stroke="#6e7b7e" stroke-width=".25" d="M74.5,42.9L73.5,43.2L34.9,68.2Z"/><path fill="#626e71" stroke="#626e71" stroke-width=".25" d="M52.2,68.1L50.9,64.5L48.1,66.2Z"/><path fill="#525c5f" stroke="#525c5f" stroke-width=".25" d="M75.5,45.1L75.5,43.8L36.9,68.9Z"/><path fill="#677376" stroke="#677376" stroke-width=".25" d="M75.5,43.8L74.5,42.9L35.9,67.9Z"/><path fill="#677477" stroke="#677477" stroke-width=".25" d="M52.2,61.7L48.1,59.7L46.4,62.4Z"/><path fill="#677477" stroke="#677477" stroke-width=".25" d="M50.9,64.5L52.2,61.7L46.4,62.4Z"/><path fill="#5f6b6e" stroke="#5f6b6e" stroke-width=".25" d="M51.5,67.3L55.6,68.2L56.8,65.4Z"/><path fill="#5f6b6e" stroke="#5f6b6e" stroke-width=".25" d="M53.2,64.6L51.5,67.3L56.8,65.4Z"/><path fill="#53291e" stroke="#53291e" stroke-width=".25" d="M60.5,55.8L56.5,61.8L84.8,63.9Z"/><path fill="#6e7b7e" stroke="#6e7b7e" stroke-width=".25" d="M48.1,59.7L51.5,60.9L53.3,60.9Z"/><path fill="#6e7b7e" stroke="#6e7b7e" stroke-width=".25" d="M54.7,62.4L51.5,60.9L48.1,59.7Z"/><path fill="#552a1e" stroke="#552a1e" stroke-width=".25" d="M39.0,64.3L43.2,67.1L60.5,55.8Z"/><path fill="#657174" stroke="#657174" stroke-width=".25" d="M51.5,60.9L53.2,64.6L55.6,61.8Z"/><path fill="#6e7b7e" stroke="#6e7b7e" stroke-width=".25" d="M51.5,60.9L55.6,61.8L53.3,60.9Z"/><path fill="#657174" stroke="#657174" stroke-width=".25" d="M53.2,64.6L56.8,65.4L55.6,61.8Z"/><path fill="#6e7b7e" stroke="#6e7b7e" stroke-width=".25" d="M52.2,61.7L54.7,62.4L48.1,59.7Z"/><path fill="#552a1e" stroke="#552a1e" stroke-width=".25" d="M43.2,67.1L56.5,61.8L60.5,55.8Z"/><path fill="#2d4046" stroke="#2d4046" stroke-width=".25" d="M35.6,59.7L29.6,71.8L64.0,69.1Z"/><path fill="#636f72" stroke="#636f72" stroke-width=".25" d="M63.1,68.8L50.9,64.5L52.2,68.1Z"/><path fill="#626e71" stroke="#626e71" stroke-width=".25" d="M56.8,65.4L55.6,68.2L64.6,67.8Z"/><path fill="#6e7b7e" stroke="#6e7b7e" stroke-width=".25" d="M84.3,45.1L83.3,45.4L42.7,71.8Z"/><path fill="#626e71" stroke="#626e71" stroke-width=".25" d="M55.6,68.2L64.7,71.0L64.6,67.8Z"/><path fill="#6e7b7e" stroke="#6e7b7e" stroke-width=".25" d="M53.3,60.9L55.6,61.8L64.8,64.5Z"/><path fill="#525c5f" stroke="#525c5f" stroke-width=".25" d="M85.3,47.4L85.3,46.1L44.7,72.4Z"/><path fill="#677376" stroke="#677376" stroke-width=".25" d="M85.3,46.1L84.3,45.1L43.7,71.5Z"/><path fill="#657174" stroke="#657174" stroke-width=".25" d="M63.2,65.5L52.2,61.7L50.9,64.5Z"/><path fill="#657174" stroke="#657174" stroke-width=".25" d="M55.6,61.8L56.8,65.4L64.7,64.6Z"/><path fill="#636f72" stroke="#636f72" stroke-width=".25" d="M63.2,72.0L63.1,68.8L52.2,68.1Z"/><path fill="#6e7b7e" stroke="#6e7b7e" stroke-width=".25" d="M63.3,65.4L54.7,62.4L52.2,61.7Z"/><path fill="#657174" stroke="#657174" stroke-width=".25" d="M56.8,65.4L64.6,67.8L64.7,64.6Z"/><path fill="#202f33" stroke="#202f33" stroke-width=".25" d="M92.4,89.4L98.4,77.4L98.4,66.5Z"/><path fill="#657174" stroke="#657174" stroke-width=".25" d="M63.1,68.8L63.2,65.5L50.9,64.5Z"/><path fill="#6e7b7e" stroke="#6e7b7e" stroke-width=".25" d="M55.6,61.8L64.7,64.6L64.8,64.5Z"/><path fill="#6e7b7e" stroke="#6e7b7e" stroke-width=".25" d="M63.2,65.5L63.3,65.4L52.2,61.7Z"/><path fill="#6e7b7e" stroke="#6e7b7e" stroke-width=".25" d="M30.5,62.8L62.4,42.1L29.5,63.1Z"/><path fill="#636f72" stroke="#636f72" stroke-width=".25" d="M64.6,67.8L64.7,71.0L72.0,70.5Z"/><path fill="#525c5f" stroke="#525c5f" stroke-width=".25" d="M31.5,65.1L63.4,44.4L31.5,63.8Z"/><path fill="#53291e" stroke="#53291e" stroke-width=".25" d="M56.5,61.8L71.5,66.8L84.8,63.9Z"/><path fill="#677376" stroke="#677376" stroke-width=".25" d="M31.5,63.8L63.4,43.1L30.5,62.8Z"/><path fill="#636f72" stroke="#636f72" stroke-width=".25" d="M64.7,71.0L73.3,74.1L72.0,70.5Z"/><path fill="#6e7b7e" stroke="#6e7b7e" stroke-width=".25" d="M92.1,48.7L91.1,49.0L52.5,74.0Z"/><path fill="#202f33" stroke="#202f33" stroke-width=".25" d="M47.6,62.7L48.3,62.2L59.4,9.0Z"/><path fill="#657174" stroke="#657174" stroke-width=".25" d="M64.7,64.6L64.6,67.8L73.3,67.6Z"/><path fill="#2a3d42" stroke="#2a3d42" stroke-width=".25" d="M45.9,61.7L46.4,62.4L57.5,9.2Z"/><path fill="#243439" stroke="#243439" stroke-width=".25" d="M46.4,62.4L47.6,62.7L58.7,9.4Z"/><path fill="#525c5f" stroke="#525c5f" stroke-width=".25" d="M93.1,50.9L93.1,49.7L54.5,74.7Z"/><path fill="#552a1e" stroke="#552a1e" stroke-width=".25" d="M71.5,66.8L56.5,61.8L43.2,67.1Z"/><path fill="#677376" stroke="#677376" stroke-width=".25" d="M93.1,49.7L92.1,48.7L53.5,73.7Z"/><path fill="#626e71" stroke="#626e71" stroke-width=".25" d="M75.8,72.8L63.1,68.8L63.2,72.0Z"/><path fill="#6e7b7e" stroke="#6e7b7e" stroke-width=".25" d="M64.8,64.5L64.7,64.6L75.8,68.3Z"/><path fill="#657174" stroke="#657174" stroke-width=".25" d="M64.6,67.8L72.0,70.5L73.3,67.6Z"/><path fill="#2d4046" stroke="#2d4046" stroke-width=".25" d="M92.4,78.5L98.4,66.5L64.0,69.1Z"/><path fill="#6e7b7e" stroke="#6e7b7e" stroke-width=".25" d="M72.4,68.2L63.3,65.4L63.2,65.5Z"/><path fill="#657174" stroke="#657174" stroke-width=".25" d="M74.7,69.1L63.2,65.5L63.1,68.8Z"/><path fill="#626e71" stroke="#626e71" stroke-width=".25" d="M74.7,75.5L75.8,72.8L63.2,72.0Z"/><path fill="#626e71" stroke="#626e71" stroke-width=".25" d="M72.0,70.5L73.3,74.1L74.8,71.8Z"/><path fill="#4d261b" stroke="#4d261b" stroke-width=".25" d="M43.2,70.8L50.0,77.5L39.0,64.3Z"/><path fill="#6e7b7e" stroke="#6e7b7e" stroke-width=".25" d="M64.7,64.6L73.3,67.6L75.8,68.3Z"/><path fill="#626e71" stroke="#626e71" stroke-width=".25" d="M73.3,74.1L76.5,75.6L74.8,71.8Z"/><path fill="#4d261b" stroke="#4d261b" stroke-width=".25" d="M50.0,75.3L43.2,67.1L39.0,64.3Z"/><path fill="#657174" stroke="#657174" stroke-width=".25" d="M75.8,72.8L74.7,69.1L63.1,68.8Z"/><path fill="#6e7b7e" stroke="#6e7b7e" stroke-width=".25" d="M74.7,69.1L72.4,68.2L63.2,65.5Z"/><path fill="#677477" stroke="#677477" stroke-width=".25" d="M73.3,67.6L72.0,70.5L76.5,69.1Z"/><path fill="#677477" stroke="#677477" stroke-width=".25" d="M72.0,70.5L74.8,71.8L76.5,69.1Z"/><path fill="#6e7b7e" stroke="#6e7b7e" stroke-width=".25" d="M35.9,67.9L74.5,42.9L34.9,68.2Z"/><path fill="#525c5f" stroke="#525c5f" stroke-width=".25" d="M36.9,70.2L75.5,45.1L36.9,68.9Z"/><path fill="#677376" stroke="#677376" stroke-width=".25" d="M36.9,68.9L75.5,43.8L35.9,67.9Z"/><path fill="#202f33" stroke="#202f33" stroke-width=".25" d="M92.4,78.5L92.4,89.4L98.4,66.5Z"/><path fill="#52291d" stroke="#52291d" stroke-width=".25" d="M89.0,70.3L84.8,63.9L67.5,75.1Z"/><path fill="#52291d" stroke="#52291d" stroke-width=".25" d="M84.8,63.9L71.5,66.8L67.5,75.1Z"/><path fill="#5f6b6e" stroke="#5f6b6e" stroke-width=".25" d="M79.9,76.7L81.6,74.0L74.7,75.5Z"/><path fill="#5f6b6e" stroke="#5f6b6e" stroke-width=".25" d="M81.6,74.0L75.8,72.8L74.7,75.5Z"/><path fill="#6e7b7e" stroke="#6e7b7e" stroke-width=".25" d="M75.8,68.3L73.3,67.6L79.9,70.3Z"/><path fill="#6e7b7e" stroke="#6e7b7e" stroke-width=".25" d="M76.5,69.1L72.4,68.2L74.7,69.1Z"/><path fill="#6e7b7e" stroke="#6e7b7e" stroke-width=".25" d="M97.5,53.8L96.5,54.1L64.6,74.8Z"/><path fill="#6e7b7e" stroke="#6e7b7e" stroke-width=".25" d="M73.3,67.6L76.5,69.1L79.9,70.3Z"/><path fill="#293b40" stroke="#293b40" stroke-width=".25" d="M29.6,71.8L29.6,82.7L43.7,82.3Z"/><path fill="#2d4046" stroke="#2d4046" stroke-width=".25" d="M29.6,71.8L43.7,82.3L64.0,69.1Z"/><path fill="#525c5f" stroke="#525c5f" stroke-width=".25" d="M98.5,56.0L98.5,54.7L66.6,75.4Z"/><path fill="#677376" stroke="#677376" stroke-width=".25" d="M98.5,54.7L97.5,53.8L65.6,74.5Z"/><path fill="#657174" stroke="#657174" stroke-width=".25" d="M79.9,70.3L74.7,69.1L75.8,72.8Z"/><path fill="#4d261b" stroke="#4d261b" stroke-width=".25" d="M50.0,77.5L50.0,75.3L39.0,64.3Z"/><path fill="#6e7b7e" stroke="#6e7b7e" stroke-width=".25" d="M79.9,70.3L76.5,69.1L74.7,69.1Z"/><path fill="#552a1e" stroke="#552a1e" stroke-width=".25" d="M67.5,75.1L71.5,66.8L43.2,67.1Z"/><path fill="#657174" stroke="#657174" stroke-width=".25" d="M81.6,74.0L79.9,70.3L75.8,72.8Z"/><path fill="#647073" stroke="#647073" stroke-width=".25" d="M29.5,64.4L30.5,65.4L30.5,64.1Z"/><path fill="#647073" stroke="#647073" stroke-width=".25" d="M29.5,63.1L29.5,64.4L30.5,64.1Z"/><path fill="#647073" stroke="#647073" stroke-width=".25" d="M30.5,65.4L31.5,65.1L30.5,64.1Z"/><path fill="#6e7b7e" stroke="#6e7b7e" stroke-width=".25" d="M43.7,71.5L84.3,45.1L42.7,71.8Z"/><path fill="#647073" stroke="#647073" stroke-width=".25" d="M30.5,62.8L29.5,63.1L30.5,64.1Z"/><path fill="#525c5f" stroke="#525c5f" stroke-width=".25" d="M44.7,73.7L85.3,47.4L44.7,72.4Z"/><path fill="#647073" stroke="#647073" stroke-width=".25" d="M31.5,65.1L31.5,63.8L30.5,64.1Z"/><path fill="#647073" stroke="#647073" stroke-width=".25" d="M31.5,63.8L30.5,62.8L30.5,64.1Z"/><path fill="#677376" stroke="#677376" stroke-width=".25" d="M44.7,72.4L85.3,46.1L43.7,71.5Z"/><path fill="#293b40" stroke="#293b40" stroke-width=".25" d="M29.6,82.7L43.7,93.2L43.7,82.3Z"/><path fill="#552a1e" stroke="#552a1e" stroke-width=".25" d="M50.0,75.3L67.5,75.1L43.2,67.1Z"/><path fill="#2a3d42" stroke="#2a3d42" stroke-width=".25" d="M57.0,8.5L45.9,61.7L57.5,9.2Z"/><path fill="#202f33" stroke="#202f33" stroke-width=".25" d="M58.7,9.4L47.6,62.7L59.4,9.0Z"/><path fill="#243439" stroke="#243439" stroke-width=".25" d="M57.5,9.2L46.4,62.4L58.7,9.4Z"/><path fill="#52291d" stroke="#52291d" stroke-width=".25" d="M78.3,77.3L89.0,70.3L67.5,75.1Z"/><path fill="#2d4046" stroke="#2d4046" stroke-width=".25" d="M69.7,85.1L92.4,78.5L64.0,69.1Z"/><path fill="#202f33" stroke="#202f33" stroke-width=".25" d="M69.7,96.0L92.4,89.4L92.4,78.5Z"/><path fill="#472218" stroke="#472218" stroke-width=".25" d="M50.0,77.5L67.5,78.8L50.0,75.3Z"/><path fill="#2d4046" stroke="#2d4046" stroke-width=".25" d="M43.7,82.3L69.7,85.1L64.0,69.1Z"/><path fill="#6e7b7e" stroke="#6e7b7e" stroke-width=".25" d="M53.5,73.7L92.1,48.7L52.5,74.0Z"/><path fill="#525c5f" stroke="#525c5f" stroke-width=".25" d="M54.5,76.0L93.1,50.9L54.5,74.7Z"/><path fill="#472218" stroke="#472218" stroke-width=".25" d="M67.5,78.8L78.3,77.3L50.0,75.3Z"/><path fill="#677376" stroke="#677376" stroke-width=".25" d="M54.5,74.7L93.1,49.7L53.5,73.7Z"/><path fill="#202f33" stroke="#202f33" stroke-width=".25" d="M81.4,73.5L82.1,73.0L71.0,12.4Z"/><path fill="#283a3e" stroke="#283a3e" stroke-width=".25" d="M79.7,73.3L80.2,73.6L69.1,13.0Z"/><path fill="#472218" stroke="#472218" stroke-width=".25" d="M78.3,77.3L67.5,75.1L50.0,75.3Z"/><path fill="#27383d" stroke="#27383d" stroke-width=".25" d="M80.2,73.6L81.4,73.5L70.3,12.9Z"/><path fill="#647073" stroke="#647073" stroke-width=".25" d="M34.9,69.5L35.9,70.5L35.9,69.2Z"/><path fill="#647073" stroke="#647073" stroke-width=".25" d="M34.9,68.2L34.9,69.5L35.9,69.2Z"/><path fill="#6e7b7e" stroke="#6e7b7e" stroke-width=".25" d="M65.6,74.5L97.5,53.8L64.6,74.8Z"/><path fill="#525c5f" stroke="#525c5f" stroke-width=".25" d="M66.6,76.7L98.5,56.0L66.6,75.4Z"/><path fill="#647073" stroke="#647073" stroke-width=".25" d="M35.9,70.5L36.9,70.2L35.9,69.2Z"/><path fill="#647073" stroke="#647073" stroke-width=".25" d="M35.9,67.9L34.9,68.2L35.9,69.2Z"/><path fill="#677376" stroke="#677376" stroke-width=".25" d="M66.6,75.4L98.5,54.7L65.6,74.5Z"/><path fill="#647073" stroke="#647073" stroke-width=".25" d="M36.9,70.2L36.9,68.9L35.9,69.2Z"/><path fill="#647073" stroke="#647073" stroke-width=".25" d="M36.9,68.9L35.9,67.9L35.9,69.2Z"/><path fill="#202f33" stroke="#202f33" stroke-width=".25" d="M69.7,85.1L69.7,96.0L92.4,78.5Z"/><path fill="#26373c" stroke="#26373c" stroke-width=".25" d="M43.7,93.2L69.7,96.0L69.7,85.1Z"/><path fill="#26373c" stroke="#26373c" stroke-width=".25" d="M43.7,82.3L43.7,93.2L69.7,85.1Z"/><path fill="#2c3f45" stroke="#2c3f45" stroke-width=".25" d="M58.9,8.2L57.7,8.0L58.2,8.7Z"/><path fill="#2c3f45" stroke="#2c3f45" stroke-width=".25" d="M59.4,9.0L58.9,8.2L58.2,8.7Z"/><path fill="#2c3f45" stroke="#2c3f45" stroke-width=".25" d="M57.7,8.0L57.0,8.5L58.2,8.7Z"/><path fill="#283a3e" stroke="#283a3e" stroke-width=".25" d="M68.6,12.7L79.7,73.3L69.1,13.0Z"/><path fill="#2c3f45" stroke="#2c3f45" stroke-width=".25" d="M58.7,9.4L59.4,9.0L58.2,8.7Z"/><path fill="#2c3f45" stroke="#2c3f45" stroke-width=".25" d="M57.0,8.5L57.5,9.2L58.2,8.7Z"/><path fill="#202f33" stroke="#202f33" stroke-width=".25" d="M70.3,12.9L81.4,73.5L71.0,12.4Z"/><path fill="#2c3f45" stroke="#2c3f45" stroke-width=".25" d="M57.5,9.2L58.7,9.4L58.2,8.7Z"/><path fill="#27383d" stroke="#27383d" stroke-width=".25" d="M69.1,13.0L80.2,73.6L70.3,12.9Z"/><path fill="#647073" stroke="#647073" stroke-width=".25" d="M42.7,73.0L43.7,74.0L43.7,72.7Z"/><path fill="#647073" stroke="#647073" stroke-width=".25" d="M42.7,71.8L42.7,73.0L43.7,72.7Z"/><path fill="#647073" stroke="#647073" stroke-width=".25" d="M43.7,74.0L44.7,73.7L43.7,72.7Z"/><path fill="#647073" stroke="#647073" stroke-width=".25" d="M43.7,71.5L42.7,71.8L43.7,72.7Z"/><path fill="#647073" stroke="#647073" stroke-width=".25" d="M44.7,73.7L44.7,72.4L43.7,72.7Z"/><path fill="#647073" stroke="#647073" stroke-width=".25" d="M44.7,72.4L43.7,71.5L43.7,72.7Z"/><path fill="#2e4146" stroke="#2e4146" stroke-width=".25" d="M70.5,12.1L69.3,12.2L69.8,12.6Z"/><path fill="#2e4146" stroke="#2e4146" stroke-width=".25" d="M69.3,12.2L68.6,12.7L69.8,12.6Z"/><path fill="#647073" stroke="#647073" stroke-width=".25" d="M52.5,75.3L53.5,76.3L53.5,75.0Z"/><path fill="#2e4146" stroke="#2e4146" stroke-width=".25" d="M71.0,12.4L70.5,12.1L69.8,12.6Z"/><path fill="#647073" stroke="#647073" stroke-width=".25" d="M52.5,74.0L52.5,75.3L53.5,75.0Z"/><path fill="#647073" stroke="#647073" stroke-width=".25" d="M53.5,76.3L54.5,76.0L53.5,75.0Z"/><path fill="#2e4146" stroke="#2e4146" stroke-width=".25" d="M68.6,12.7L69.1,13.0L69.8,12.6Z"/><path fill="#647073" stroke="#647073" stroke-width=".25" d="M53.5,73.7L52.5,74.0L53.5,75.0Z"/><path fill="#2e4146" stroke="#2e4146" stroke-width=".25" d="M70.3,12.9L71.0,12.4L69.8,12.6Z"/><path fill="#647073" stroke="#647073" stroke-width=".25" d="M54.5,76.0L54.5,74.7L53.5,75.0Z"/><path fill="#2e4146" stroke="#2e4146" stroke-width=".25" d="M69.1,13.0L70.3,12.9L69.8,12.6Z"/><path fill="#647073" stroke="#647073" stroke-width=".25" d="M54.5,74.7L53.5,73.7L53.5,75.0Z"/><path fill="#647073" stroke="#647073" stroke-width=".25" d="M64.6,76.0L65.6,77.0L65.6,75.7Z"/><path fill="#647073" stroke="#647073" stroke-width=".25" d="M64.6,74.8L64.6,76.0L65.6,75.7Z"/><path fill="#647073" stroke="#647073" stroke-width=".25" d="M65.6,77.0L66.6,76.7L65.6,75.7Z"/><path fill="#647073" stroke="#647073" stroke-width=".25" d="M65.6,74.5L64.6,74.8L65.6,75.7Z"/><path fill="#647073" stroke="#647073" stroke-width=".25" d="M66.6,76.7L66.6,75.4L65.6,75.7Z"/><path fill="#647073" stroke="#647073" stroke-width=".25" d="M66.6,75.4L65.6,74.5L65.6,75.7Z"/></svg>