<svg xmlns="http://www.w3.org/2000/svg" viewBox="0 0 128 104"><ellipse cx="64" cy="94" rx="39" ry="5" fill="#000" opacity=".16"/><path fill="#202f33" stroke="#202f33" stroke-width=".25" d="M58.0,75.7L58.8,74.7L54.2,27.8Z"/><path fill="#2a3c41" stroke="#2a3c41" stroke-width=".25" d="M50.5,75.9L52.2,76.5L47.5,29.6Z"/><path fill="#233237" stroke="#233237" stroke-width=".25" d="M55.3,76.4L58.0,75.7L53.4,28.8Z"/><path fill="#293a3f" stroke="#293a3f" stroke-width=".25" d="M52.2,76.5L55.3,76.4L50.7,29.5Z"/><path fill="#202f33" stroke="#202f33" stroke-width=".25" d="M53.4,28.8L58.0,75.7L54.2,27.8Z"/><path fill="#2a3c41" stroke="#2a3c41" stroke-width=".25" d="M45.8,29.0L50.5,75.9L47.5,29.6Z"/><path fill="#2d4045" stroke="#2d4045" stroke-width=".25" d="M52.4,27.2L49.3,27.3L50.0,28.4Z"/><path fill="#2d4045" stroke="#2d4045" stroke-width=".25" d="M49.3,27.3L46.6,28.0L50.0,28.4Z"/><path fill="#2d4045" stroke="#2d4045" stroke-width=".25" d="M54.2,27.8L52.4,27.2L50.0,28.4Z"/><path fill="#233237" stroke="#233237" stroke-width=".25" d="M50.7,29.5L55.3,76.4L53.4,28.8Z"/><path fill="#293a3f" stroke="#293a3f" stroke-width=".25" d="M47.5,29.6L52.2,76.5L50.7,29.5Z"/><path fill="#2d4045" stroke="#2d4045" stroke-width=".25" d="M46.6,28.0L45.8,29.0L50.0,28.4Z"/><path fill="#2d4045" stroke="#2d4045" stroke-width=".25" d="M53.4,28.8L54.2,27.8L50.0,28.4Z"/><path fill="#2d4045" stroke="#2d4045" stroke-width=".25" d="M45.8,29.0L47.5,29.6L50.0,28.4Z"/><path fill="#2d4045" stroke="#2d4045" stroke-width=".25" d="M50.7,29.5L53.4,28.8L50.0,28.4Z"/><path fill="#2d4045" stroke="#2d4045" stroke-width=".25" d="M47.5,29.6L50.7,29.5L50.0,28.4Z"/><path fill="#2d4046" stroke="#2d4046" stroke-width=".25" d="M87.5,24.3L57.3,21.1L64.0,39.6Z"/><path fill="#2d4046" stroke="#2d4046" stroke-width=".25" d="M57.3,21.1L31.0,28.7L64.0,39.6Z"/><path fill="#202f33" stroke="#202f33" stroke-width=".25" d="M90.0,87.8L90.7,86.4L101.7,44.7Z"/><path fill="#52291d" stroke="#52291d" stroke-width=".25" d="M72.4,23.2L52.7,23.7L85.7,28.9Z"/><path fill="#2d4046" stroke="#2d4046" stroke-width=".25" d="M103.9,36.5L87.5,24.3L64.0,39.6Z"/><path fill="#202f33" stroke="#202f33" stroke-width=".25" d="M87.3,88.1L90.0,87.8L100.9,46.0Z"/><path fill="#2b3e43" stroke="#2b3e43" stroke-width=".25" d="M82.6,85.4L84.2,87.1L95.1,45.3Z"/><path fill="#606c6e" stroke="#606c6e" stroke-width=".25" d="M47.7,34.0L43.1,31.0L45.1,35.5Z"/><path fill="#27383d" stroke="#27383d" stroke-width=".25" d="M84.2,87.1L87.3,88.1L98.2,46.3Z"/><path fill="#562b1f" stroke="#562b1f" stroke-width=".25" d="M40.5,28.5L34.1,37.4L52.7,23.7Z"/><path fill="#606c6e" stroke="#606c6e" stroke-width=".25" d="M49.2,38.2L47.7,34.0L45.1,35.5Z"/><path fill="#5a6568" stroke="#5a6568" stroke-width=".25" d="M49.2,36.8L54.6,37.5L55.9,34.3Z"/><path fill="#6a767a" stroke="#6a767a" stroke-width=".25" d="M49.2,30.6L45.1,27.8L43.1,31.0Z"/><path fill="#5a6568" stroke="#5a6568" stroke-width=".25" d="M51.2,33.7L49.2,36.8L55.9,34.3Z"/><path fill="#6e7b7e" stroke="#6e7b7e" stroke-width=".25" d="M45.1,27.8L49.2,29.2L52.1,28.8Z"/><path fill="#6a767a" stroke="#6a767a" stroke-width=".25" d="M47.7,34.0L49.2,30.6L43.1,31.0Z"/><path fill="#52291d" stroke="#52291d" stroke-width=".25" d="M52.7,23.7L53.8,29.6L85.7,28.9Z"/><path fill="#6e7b7e" stroke="#6e7b7e" stroke-width=".25" d="M49.2,29.2L54.6,29.9L52.1,28.8Z"/><path fill="#657174" stroke="#657174" stroke-width=".25" d="M49.2,29.2L51.2,33.7L54.6,29.9Z"/><path fill="#657174" stroke="#657174" stroke-width=".25" d="M51.2,33.7L55.9,34.3L54.6,29.9Z"/><path fill="#6e7b7e" stroke="#6e7b7e" stroke-width=".25" d="M52.4,31.3L49.2,29.2L45.1,27.8Z"/><path fill="#202f33" stroke="#202f33" stroke-width=".25" d="M100.9,46.0L90.0,87.8L101.7,44.7Z"/><path fill="#616c6f" stroke="#616c6f" stroke-width=".25" d="M55.9,34.3L54.6,37.5L65.4,37.0Z"/><path fill="#6e7b7e" stroke="#6e7b7e" stroke-width=".25" d="M49.2,30.6L52.4,31.3L45.1,27.8Z"/><path fill="#2d4046" stroke="#2d4046" stroke-width=".25" d="M31.0,28.7L24.1,42.7L64.0,39.6Z"/><path fill="#2b3e43" stroke="#2b3e43" stroke-width=".25" d="M93.5,43.7L82.6,85.4L95.1,45.3Z"/><path fill="#616c6f" stroke="#616c6f" stroke-width=".25" d="M54.6,37.5L65.6,40.7L65.4,37.0Z"/><path fill="#6e7b7e" stroke="#6e7b7e" stroke-width=".25" d="M52.1,28.8L54.6,29.9L66.0,32.8Z"/><path fill="#626e70" stroke="#626e70" stroke-width=".25" d="M61.8,39.3L47.7,34.0L49.2,38.2Z"/><path fill="#657174" stroke="#657174" stroke-width=".25" d="M54.6,29.9L55.9,34.3L65.6,33.1Z"/><path fill="#202f33" stroke="#202f33" stroke-width=".25" d="M98.2,46.3L87.3,88.1L100.9,46.0Z"/><path fill="#27383d" stroke="#27383d" stroke-width=".25" d="M95.1,45.3L84.2,87.1L98.2,46.3Z"/><path fill="#657174" stroke="#657174" stroke-width=".25" d="M55.9,34.3L65.4,37.0L65.6,33.1Z"/><path fill="#667275" stroke="#667275" stroke-width=".25" d="M62.0,35.4L49.2,30.6L47.7,34.0Z"/><path fill="#202f33" stroke="#202f33" stroke-width=".25" d="M97.0,63.8L103.9,49.8L103.9,36.5Z"/><path fill="#6e7b7e" stroke="#6e7b7e" stroke-width=".25" d="M54.6,29.9L65.6,33.1L66.0,32.8Z"/><path fill="#2b3e43" stroke="#2b3e43" stroke-width=".25" d="M100.0,43.0L97.0,42.0L97.6,44.2Z"/><path fill="#626e70" stroke="#626e70" stroke-width=".25" d="M62.0,43.0L61.8,39.3L49.2,38.2Z"/><path fill="#562b1f" stroke="#562b1f" stroke-width=".25" d="M42.3,38.1L53.8,29.6L52.7,23.7Z"/><path fill="#562b1f" stroke="#562b1f" stroke-width=".25" d="M34.1,37.4L42.3,38.1L52.7,23.7Z"/><path fill="#2b3e43" stroke="#2b3e43" stroke-width=".25" d="M97.0,42.0L94.3,42.3L97.6,44.2Z"/><path fill="#6e7b7e" stroke="#6e7b7e" stroke-width=".25" d="M62.4,35.1L52.4,31.3L49.2,30.6Z"/><path fill="#2b3e43" stroke="#2b3e43" stroke-width=".25" d="M101.7,44.7L100.0,43.0L97.6,44.2Z"/><path fill="#626e70" stroke="#626e70" stroke-width=".25" d="M65.4,37.0L65.6,40.7L74.0,40.3Z"/><path fill="#667275" stroke="#667275" stroke-width=".25" d="M61.8,39.3L62.0,35.4L47.7,34.0Z"/><path fill="#52291d" stroke="#52291d" stroke-width=".25" d="M53.8,29.6L74.2,32.8L85.7,28.9Z"/><path fill="#2b3e43" stroke="#2b3e43" stroke-width=".25" d="M94.3,42.3L93.5,43.7L97.6,44.2Z"/><path fill="#2b3e43" stroke="#2b3e43" stroke-width=".25" d="M100.9,46.0L101.7,44.7L97.6,44.2Z"/><path fill="#6e7b7e" stroke="#6e7b7e" stroke-width=".25" d="M62.0,35.4L62.4,35.1L49.2,30.6Z"/><path fill="#626e70" stroke="#626e70" stroke-width=".25" d="M65.6,40.7L75.6,44.5L74.0,40.3Z"/><path fill="#2b3e43" stroke="#2b3e43" stroke-width=".25" d="M93.5,43.7L95.1,45.3L97.6,44.2Z"/><path fill="#667275" stroke="#667275" stroke-width=".25" d="M65.6,33.1L65.4,37.0L75.6,36.8Z"/><path fill="#2b3e43" stroke="#2b3e43" stroke-width=".25" d="M98.2,46.3L100.9,46.0L97.6,44.2Z"/><path fill="#202f33" stroke="#202f33" stroke-width=".25" d="M54.2,94.6L54.9,92.6L48.5,54.5Z"/><path fill="#2b3e43" stroke="#2b3e43" stroke-width=".25" d="M95.1,45.3L98.2,46.3L97.6,44.2Z"/><path fill="#6e7b7e" stroke="#6e7b7e" stroke-width=".25" d="M66.0,32.8L65.6,33.1L78.8,37.6Z"/><path fill="#d36333" stroke="#d36333" stroke-width=".25" d="M68.0,36.4L67.4,31.8L57.5,11.0Z"/><path fill="#667275" stroke="#667275" stroke-width=".25" d="M65.4,37.0L74.0,40.3L75.6,36.8Z"/><path fill="#26383c" stroke="#26383c" stroke-width=".25" d="M46.6,94.4L48.4,95.9L42.0,57.8Z"/><path fill="#2d4046" stroke="#2d4046" stroke-width=".25" d="M97.0,50.5L103.9,36.5L64.0,39.6Z"/><path fill="#202f33" stroke="#202f33" stroke-width=".25" d="M51.5,96.0L54.2,94.6L47.8,56.5Z"/><path fill="#4f271c" stroke="#4f271c" stroke-width=".25" d="M93.9,36.8L85.7,28.9L75.3,43.2Z"/><path fill="#616c6f" stroke="#616c6f" stroke-width=".25" d="M77.2,43.8L61.8,39.3L62.0,43.0Z"/><path fill="#233338" stroke="#233338" stroke-width=".25" d="M48.4,95.9L51.5,96.0L45.1,57.9Z"/><path fill="#606c6e" stroke="#606c6e" stroke-width=".25" d="M74.0,40.3L75.6,44.5L76.8,42.2Z"/><path fill="#6e7b7e" stroke="#6e7b7e" stroke-width=".25" d="M65.6,33.1L75.6,36.8L78.8,37.6Z"/><path fill="#552b1f" stroke="#552b1f" stroke-width=".25" d="M74.2,32.8L53.8,29.6L42.3,38.1Z"/><path fill="#6e7b7e" stroke="#6e7b7e" stroke-width=".25" d="M73.4,38.3L62.4,35.1L62.0,35.4Z"/><path fill="#ff8346" stroke="#ff8346" stroke-width=".25" d="M46.3,34.6L51.0,38.6L57.5,11.0Z"/><path fill="#606c6e" stroke="#606c6e" stroke-width=".25" d="M75.6,44.5L78.8,46.6L76.8,42.2Z"/><path fill="#657174" stroke="#657174" stroke-width=".25" d="M75.9,39.4L62.0,35.4L61.8,39.3Z"/><path fill="#616c6f" stroke="#616c6f" stroke-width=".25" d="M75.9,47.1L77.2,43.8L62.0,43.0Z"/><path fill="#4f271c" stroke="#4f271c" stroke-width=".25" d="M85.7,28.9L74.2,32.8L75.3,43.2Z"/><path fill="#6a767a" stroke="#6a767a" stroke-width=".25" d="M75.6,36.8L74.0,40.3L78.8,39.0Z"/><path fill="#d3a14c" stroke="#d3a14c" stroke-width=".25" d="M80.5,38.1L80.0,34.3L71.8,8.0Z"/><path fill="#e36b38" stroke="#e36b38" stroke-width=".25" d="M60.6,39.4L68.0,36.4L57.5,11.0Z"/><path fill="#6a767a" stroke="#6a767a" stroke-width=".25" d="M74.0,40.3L76.8,42.2L78.8,39.0Z"/><path fill="#202f33" stroke="#202f33" stroke-width=".25" d="M97.0,50.5L97.0,63.8L103.9,36.5Z"/><path fill="#657174" stroke="#657174" stroke-width=".25" d="M77.2,43.8L75.9,39.4L61.8,39.3Z"/><path fill="#6e7b7e" stroke="#6e7b7e" stroke-width=".25" d="M75.9,39.4L73.4,38.3L62.0,35.4Z"/><path fill="#ff7c42" stroke="#ff7c42" stroke-width=".25" d="M51.0,38.6L60.6,39.4L57.5,11.0Z"/><path fill="#4d261b" stroke="#4d261b" stroke-width=".25" d="M42.3,45.3L55.6,50.9L34.1,37.4Z"/><path fill="#6e7b7e" stroke="#6e7b7e" stroke-width=".25" d="M78.8,37.6L75.6,36.8L82.9,40.3Z"/><path fill="#5a6568" stroke="#5a6568" stroke-width=".25" d="M82.9,48.0L84.9,44.8L75.9,47.1Z"/><path fill="#293b40" stroke="#293b40" stroke-width=".25" d="M24.1,42.7L24.1,56.0L40.5,54.9Z"/><path fill="#ffd064" stroke="#ffd064" stroke-width=".25" d="M62.4,36.6L66.3,39.9L71.8,8.0Z"/><path fill="#2d4046" stroke="#2d4046" stroke-width=".25" d="M24.1,42.7L40.5,54.9L64.0,39.6Z"/><path fill="#6e7b7e" stroke="#6e7b7e" stroke-width=".25" d="M75.6,36.8L78.8,39.0L82.9,40.3Z"/><path fill="#5a6568" stroke="#5a6568" stroke-width=".25" d="M84.9,44.8L77.2,43.8L75.9,47.1Z"/><path fill="#6e7b7e" stroke="#6e7b7e" stroke-width=".25" d="M78.8,39.0L73.4,38.3L75.9,39.4Z"/><path fill="#dba84f" stroke="#dba84f" stroke-width=".25" d="M74.4,40.6L80.5,38.1L71.8,8.0Z"/><path fill="#4d261b" stroke="#4d261b" stroke-width=".25" d="M55.6,46.4L42.3,38.1L34.1,37.4Z"/><path fill="#657174" stroke="#657174" stroke-width=".25" d="M82.9,40.3L75.9,39.4L77.2,43.8Z"/><path fill="#6e7b7e" stroke="#6e7b7e" stroke-width=".25" d="M82.9,40.3L78.8,39.0L75.9,39.4Z"/><path fill="#4f271c" stroke="#4f271c" stroke-width=".25" d="M87.5,45.7L93.9,36.8L75.3,43.2Z"/><path fill="#657174" stroke="#657174" stroke-width=".25" d="M84.9,44.8L82.9,40.3L77.2,43.8Z"/><path fill="#26383c" stroke="#26383c" stroke-width=".25" d="M40.2,56.3L46.6,94.4L42.0,57.8Z"/><path fill="#552b1f" stroke="#552b1f" stroke-width=".25" d="M75.3,43.2L74.2,32.8L42.3,38.1Z"/><path fill="#ffc45e" stroke="#ffc45e" stroke-width=".25" d="M66.3,39.9L74.4,40.6L71.8,8.0Z"/><path fill="#202f33" stroke="#202f33" stroke-width=".25" d="M47.8,56.5L54.2,94.6L48.5,54.5Z"/><path fill="#233338" stroke="#233338" stroke-width=".25" d="M42.0,57.8L48.4,95.9L45.1,57.9Z"/><path fill="#202f33" stroke="#202f33" stroke-width=".25" d="M45.1,57.9L51.5,96.0L47.8,56.5Z"/><path fill="#4d261b" stroke="#4d261b" stroke-width=".25" d="M55.6,50.9L55.6,46.4L34.1,37.4Z"/><path fill="#293b40" stroke="#293b40" stroke-width=".25" d="M24.1,56.0L40.5,68.2L40.5,54.9Z"/><path fill="#2d4046" stroke="#2d4046" stroke-width=".25" d="M70.7,58.1L97.0,50.5L64.0,39.6Z"/><path fill="#552b1f" stroke="#552b1f" stroke-width=".25" d="M55.6,46.4L75.3,43.2L42.3,38.1Z"/><path fill="#432016" stroke="#432016" stroke-width=".25" d="M75.3,50.4L87.5,45.7L55.6,46.4Z"/><path fill="#2e4248" stroke="#2e4248" stroke-width=".25" d="M46.8,53.0L43.6,52.9L44.4,55.4Z"/><path fill="#2e4248" stroke="#2e4248" stroke-width=".25" d="M43.6,52.9L40.9,54.2L44.4,55.4Z"/><path fill="#202f33" stroke="#202f33" stroke-width=".25" d="M70.7,71.4L97.0,63.8L97.0,50.5Z"/><path fill="#432016" stroke="#432016" stroke-width=".25" d="M87.5,45.7L75.3,43.2L55.6,46.4Z"/><path fill="#2d4046" stroke="#2d4046" stroke-width=".25" d="M40.5,54.9L70.7,58.1L64.0,39.6Z"/><path fill="#432016" stroke="#432016" stroke-width=".25" d="M55.6,50.9L75.3,50.4L55.6,46.4Z"/><path fill="#2e4248" stroke="#2e4248" stroke-width=".25" d="M48.5,54.5L46.8,53.0L44.4,55.4Z"/><path fill="#2e4248" stroke="#2e4248" stroke-width=".25" d="M40.9,54.2L40.2,56.3L44.4,55.4Z"/><path fill="#2e4248" stroke="#2e4248" stroke-width=".25" d="M47.8,56.5L48.5,54.5L44.4,55.4Z"/><path fill="#2e4248" stroke="#2e4248" stroke-width=".25" d="M40.2,56.3L42.0,57.8L44.4,55.4Z"/><path fill="#2e4248" stroke="#2e4248" stroke-width=".25" d="M45.1,57.9L47.8,56.5L44.4,55.4Z"/><path fill="#2e4248" stroke="#2e4248" stroke-width=".25" d="M42.0,57.8L45.1,57.9L44.4,55.4Z"/><path fill="#202f33" stroke="#202f33" stroke-width=".25" d="M70.7,58.1L70.7,71.4L97.0,50.5Z"/><path fill="#26373c" stroke="#26373c" stroke-width=".25" d="M40.5,68.2L70.7,71.4L70.7,58.1Z"/><path fill="#26373c" stroke="#26373c" stroke-width=".25" d="M40.5,54.9L40.5,68.2L70.7,58.1Z"/></svg>