<svg xmlns="http://www.w3.org/2000/svg" viewBox="0 0 128 104"><ellipse cx="64" cy="94" rx="39" ry="5" fill="#000" opacity=".16"/><path fill="#402d22" stroke="#402d22" stroke-width=".25" d="M22.3,52.6L40.9,40.5L40.9,32.6Z"/><path fill="#563e30" stroke="#563e30" stroke-width=".25" d="M35.6,30.9L16.9,42.9L40.9,32.6Z"/><path fill="#8b6340" stroke="#8b6340" stroke-width=".25" d="M27.5,28.7L23.6,31.2L119.2,59.0Z"/><path fill="#402d22" stroke="#402d22" stroke-width=".25" d="M22.3,44.7L22.3,52.6L40.9,32.6Z"/><path fill="#7e5a3a" stroke="#7e5a3a" stroke-width=".25" d="M23.6,31.2L23.6,38.5L115.3,61.5Z"/><path fill="#563e30" stroke="#563e30" stroke-width=".25" d="M16.9,42.9L22.3,44.7L40.9,32.6Z"/><path fill="#b88e60" stroke="#b88e60" stroke-width=".25" d="M29.2,25.5L8.0,39.3L120.0,55.6Z"/><path fill="#4e382b" stroke="#4e382b" stroke-width=".25" d="M16.9,50.8L22.3,52.6L22.3,44.7Z"/><path fill="#4e382b" stroke="#4e382b" stroke-width=".25" d="M16.9,42.9L16.9,50.8L22.3,44.7Z"/><path fill="#8b6340" stroke="#8b6340" stroke-width=".25" d="M12.7,38.3L8.8,40.8L104.4,68.6Z"/><path fill="#7e5a3a" stroke="#7e5a3a" stroke-width=".25" d="M23.6,38.5L115.3,68.9L115.3,61.5Z"/><path fill="#7e5a3a" stroke="#7e5a3a" stroke-width=".25" d="M8.8,40.8L8.8,48.1L100.5,71.1Z"/><path fill="#8b6340" stroke="#8b6340" stroke-width=".25" d="M23.6,31.2L115.3,61.5L119.2,59.0Z"/><path fill="#a88157" stroke="#a88157" stroke-width=".25" d="M8.0,39.3L8.0,44.2L98.8,69.4Z"/><path fill="#b88e60" stroke="#b88e60" stroke-width=".25" d="M8.0,39.3L98.8,69.4L120.0,55.6Z"/><path fill="#694a2f" stroke="#694a2f" stroke-width=".25" d="M115.3,68.9L119.2,66.4L119.2,59.0Z"/><path fill="#402d22" stroke="#402d22" stroke-width=".25" d="M92.4,75.8L111.1,63.7L111.1,55.9Z"/><path fill="#563e30" stroke="#563e30" stroke-width=".25" d="M105.7,54.1L87.1,66.2L111.1,55.9Z"/><path fill="#7e5a3a" stroke="#7e5a3a" stroke-width=".25" d="M8.8,48.1L100.5,78.5L100.5,71.1Z"/><path fill="#694a2f" stroke="#694a2f" stroke-width=".25" d="M115.3,61.5L115.3,68.9L119.2,59.0Z"/><path fill="#8b6340" stroke="#8b6340" stroke-width=".25" d="M8.8,40.8L100.5,71.1L104.4,68.6Z"/><path fill="#a88157" stroke="#a88157" stroke-width=".25" d="M8.0,44.2L98.8,74.3L98.8,69.4Z"/><path fill="#8c6b47" stroke="#8c6b47" stroke-width=".25" d="M98.8,74.3L120.0,60.5L120.0,55.6Z"/><path fill="#402d22" stroke="#402d22" stroke-width=".25" d="M92.4,68.0L92.4,75.8L111.1,55.9Z"/><path fill="#563e30" stroke="#563e30" stroke-width=".25" d="M87.1,66.2L92.4,68.0L111.1,55.9Z"/><path fill="#4e382b" stroke="#4e382b" stroke-width=".25" d="M87.1,74.0L92.4,75.8L92.4,68.0Z"/><path fill="#4e382b" stroke="#4e382b" stroke-width=".25" d="M87.1,66.2L87.1,74.0L92.4,68.0Z"/><path fill="#8c6b47" stroke="#8c6b47" stroke-width=".25" d="M98.8,69.4L98.8,74.3L120.0,55.6Z"/><path fill="#694a2f" stroke="#694a2f" stroke-width=".25" d="M100.5,78.5L104.4,76.0L104.4,68.6Z"/><path fill="#694a2f" stroke="#694a2f" stroke-width=".25" d="M100.5,71.1L100.5,78.5L104.4,68.6Z"/></svg>