<svg xmlns="http://www.w3.org/2000/svg" viewBox="0 0 128 104"><ellipse cx="64" cy="94" rx="39" ry="5" fill="#000" opacity=".16"/><path fill="#c7aa79" stroke="#c7aa79" stroke-width=".25" d="M63.3,80.2L55.7,85.2L72.3,83.2Z"/><path fill="#97815b" stroke="#97815b" stroke-width=".25" d="M64.7,92.7L72.3,87.7L72.3,83.2Z"/><path fill="#c7aa79" stroke="#c7aa79" stroke-width=".25" d="M55.7,85.2L64.7,88.2L72.3,83.2Z"/><path fill="#b69b6f" stroke="#b69b6f" stroke-width=".25" d="M55.7,85.2L55.7,89.7L64.7,88.2Z"/><path fill="#97815b" stroke="#97815b" stroke-width=".25" d="M64.7,88.2L64.7,92.7L72.3,83.2Z"/><path fill="#b69b6f" stroke="#b69b6f" stroke-width=".25" d="M55.7,89.7L64.7,92.7L64.7,88.2Z"/><path fill="#402d22" stroke="#402d22" stroke-width=".25" d="M64.3,96.0L71.3,91.5L71.3,10.5Z"/><path fill="#4e382b" stroke="#4e382b" stroke-width=".25" d="M56.7,93.5L64.3,96.0L64.3,15.0Z"/><path fill="#4e382b" stroke="#4e382b" stroke-width=".25" d="M56.7,12.5L56.7,93.5L64.3,15.0Z"/><path fill="#402d22" stroke="#402d22" stroke-width=".25" d="M64.3,15.0L64.3,96.0L71.3,10.5Z"/><path fill="#c7aa79" stroke="#c7aa79" stroke-width=".25" d="M63.3,11.3L55.7,16.3L72.3,14.3Z"/><path fill="#97815b" stroke="#97815b" stroke-width=".25" d="M64.7,23.8L72.3,18.8L72.3,14.3Z"/><path fill="#563e30" stroke="#563e30" stroke-width=".25" d="M63.7,8.0L56.7,12.5L71.3,10.5Z"/><path fill="#c7aa79" stroke="#c7aa79" stroke-width=".25" d="M55.7,16.3L64.7,19.2L72.3,14.3Z"/><path fill="#b69b6f" stroke="#b69b6f" stroke-width=".25" d="M55.7,16.3L55.7,20.8L64.7,19.2Z"/><path fill="#97815b" stroke="#97815b" stroke-width=".25" d="M64.7,19.2L64.7,23.8L72.3,14.3Z"/><path fill="#b69b6f" stroke="#b69b6f" stroke-width=".25" d="M55.7,20.8L64.7,23.8L64.7,19.2Z"/><path fill="#563e30" stroke="#563e30" stroke-width=".25" d="M56.7,12.5L64.3,15.0L71.3,10.5Z"/></svg>