<svg xmlns="http://www.w3.org/2000/svg" viewBox="0 0 128 104"><ellipse cx="64" cy="94" rx="39" ry="5" fill="#000" opacity=".16"/><path fill="#56615d" stroke="#56615d" stroke-width=".25" d="M71.6,57.3L53.9,54.2L84.5,60.4Z"/><path fill="#5e6a66" stroke="#5e6a66" stroke-width=".25" d="M41.9,65.9L36.5,74.3L53.9,54.2Z"/><path fill="#56615d" stroke="#56615d" stroke-width=".25" d="M53.9,54.2L55.9,55.4L84.5,60.4Z"/><path fill="#5e6a66" stroke="#5e6a66" stroke-width=".25" d="M36.5,74.3L45.1,67.8L53.9,54.2Z"/><path fill="#5e6a66" stroke="#5e6a66" stroke-width=".25" d="M45.1,67.8L55.9,55.4L53.9,54.2Z"/><path fill="#56615d" stroke="#56615d" stroke-width=".25" d="M55.9,55.4L74.8,59.3L84.5,60.4Z"/><path fill="#4a5450" stroke="#4a5450" stroke-width=".25" d="M91.5,75.9L84.5,60.4L75.8,74.1Z"/><path fill="#57625e" stroke="#57625e" stroke-width=".25" d="M43.5,89.8L56.4,92.9L36.5,74.3Z"/><path fill="#4a5450" stroke="#4a5450" stroke-width=".25" d="M84.5,60.4L74.8,59.3L75.8,74.1Z"/><path fill="#4a5450" stroke="#4a5450" stroke-width=".25" d="M86.1,84.3L91.5,75.9L75.8,74.1Z"/><path fill="#a58157" stroke="#a58157" stroke-width=".25" d="M48.0,60.9L51.1,62.5L45.0,43.8Z"/><path fill="#a07d54" stroke="#a07d54" stroke-width=".25" d="M79.6,32.3L64.5,26.1L82.7,33.9Z"/><path fill="#5f6b67" stroke="#5f6b67" stroke-width=".25" d="M74.8,59.3L55.9,55.4L45.1,67.8Z"/><path fill="#57625e" stroke="#57625e" stroke-width=".25" d="M57.5,79.4L45.1,67.8L36.5,74.3Z"/><path fill="#57625e" stroke="#57625e" stroke-width=".25" d="M56.4,92.9L57.5,79.4L36.5,74.3Z"/><path fill="#a07d54" stroke="#a07d54" stroke-width=".25" d="M64.5,26.1L58.4,23.9L82.7,33.9Z"/><path fill="#49534f" stroke="#49534f" stroke-width=".25" d="M74.1,96.0L86.1,84.3L57.5,79.4Z"/><path fill="#5f6b67" stroke="#5f6b67" stroke-width=".25" d="M75.8,74.1L74.8,59.3L45.1,67.8Z"/><path fill="#896b47" stroke="#896b47" stroke-width=".25" d="M72.3,70.9L84.3,60.0L74.4,56.4Z"/><path fill="#49534f" stroke="#49534f" stroke-width=".25" d="M56.4,92.9L74.1,96.0L57.5,79.4Z"/><path fill="#a58157" stroke="#a58157" stroke-width=".25" d="M50.1,46.4L46.3,34.8L45.0,43.8Z"/><path fill="#a58157" stroke="#a58157" stroke-width=".25" d="M51.1,62.5L50.1,46.4L45.0,43.8Z"/><path fill="#49534f" stroke="#49534f" stroke-width=".25" d="M86.1,84.3L75.8,74.1L57.5,79.4Z"/><path fill="#5f6b67" stroke="#5f6b67" stroke-width=".25" d="M57.5,79.4L75.8,74.1L45.1,67.8Z"/><path fill="#896b47" stroke="#896b47" stroke-width=".25" d="M66.1,68.7L72.3,70.9L74.4,56.4Z"/><path fill="#896b47" stroke="#896b47" stroke-width=".25" d="M84.3,60.0L85.7,51.0L74.4,56.4Z"/><path fill="#464f4b" stroke="#464f4b" stroke-width=".25" d="M55.8,36.2L68.1,39.0L48.3,34.0Z"/><path fill="#bb9364" stroke="#bb9364" stroke-width=".25" d="M69.6,28.8L58.4,23.9L46.3,34.8Z"/><path fill="#a07d54" stroke="#a07d54" stroke-width=".25" d="M58.4,23.9L69.6,28.8L82.7,33.9Z"/><path fill="#9f7d54" stroke="#9f7d54" stroke-width=".25" d="M51.1,62.5L66.1,68.7L50.1,46.4Z"/><path fill="#f1ca97" stroke="#f1ca97" stroke-width=".25" d="M58.1,16.1L56.7,14.9L57.4,16.5Z"/><path fill="#464f4b" stroke="#464f4b" stroke-width=".25" d="M68.1,39.0L76.3,30.4L76.5,29.9Z"/><path fill="#f1ca97" stroke="#f1ca97" stroke-width=".25" d="M58.7,17.5L58.1,16.1L57.4,16.5Z"/><path fill="#e0bc8c" stroke="#e0bc8c" stroke-width=".25" d="M58.8,17.0L60.8,17.1L61.3,16.0Z"/><path fill="#ffe2a9" stroke="#ffe2a9" stroke-width=".25" d="M58.7,14.9L57.4,13.8L56.7,14.9Z"/><path fill="#e0bc8c" stroke="#e0bc8c" stroke-width=".25" d="M59.5,15.9L58.8,17.0L61.3,16.0Z"/><path fill="#ffe7ad" stroke="#ffe7ad" stroke-width=".25" d="M57.4,13.8L58.8,14.3L60.0,14.1Z"/><path fill="#ffe2a9" stroke="#ffe2a9" stroke-width=".25" d="M58.1,16.1L58.7,14.9L56.7,14.9Z"/><path fill="#ffe7ad" stroke="#ffe7ad" stroke-width=".25" d="M58.8,14.3L60.8,14.5L60.0,14.1Z"/><path fill="#ffd6a0" stroke="#ffd6a0" stroke-width=".25" d="M58.8,14.3L59.5,15.9L60.8,14.5Z"/><path fill="#ffd6a0" stroke="#ffd6a0" stroke-width=".25" d="M59.5,15.9L61.3,16.0L60.8,14.5Z"/><path fill="#ffe7ad" stroke="#ffe7ad" stroke-width=".25" d="M59.8,15.1L58.8,14.3L57.4,13.8Z"/><path fill="#f4cc99" stroke="#f4cc99" stroke-width=".25" d="M61.3,16.0L60.8,17.1L64.6,17.0Z"/><path fill="#464f4b" stroke="#464f4b" stroke-width=".25" d="M76.3,30.4L81.4,24.7L76.5,29.9Z"/><path fill="#ffe7ad" stroke="#ffe7ad" stroke-width=".25" d="M58.7,14.9L59.8,15.1L57.4,13.8Z"/><path fill="#f4cc99" stroke="#f4cc99" stroke-width=".25" d="M60.8,17.1L64.7,18.2L64.6,17.0Z"/><path fill="#9c7a52" stroke="#9c7a52" stroke-width=".25" d="M85.7,51.0L82.7,33.9L64.5,42.7Z"/><path fill="#ffe7ad" stroke="#ffe7ad" stroke-width=".25" d="M60.0,14.1L60.8,14.5L64.9,15.4Z"/><path fill="#ffd8a1" stroke="#ffd8a1" stroke-width=".25" d="M60.8,14.5L61.3,16.0L64.7,15.6Z"/><path fill="#f6cf9a" stroke="#f6cf9a" stroke-width=".25" d="M63.0,18.0L58.1,16.1L58.7,17.5Z"/><path fill="#464f4b" stroke="#464f4b" stroke-width=".25" d="M68.1,39.0L68.3,38.7L48.3,34.0Z"/><path fill="#ffd8a1" stroke="#ffd8a1" stroke-width=".25" d="M61.3,16.0L64.6,17.0L64.7,15.6Z"/><path fill="#ffe7ad" stroke="#ffe7ad" stroke-width=".25" d="M60.8,14.5L64.7,15.6L64.9,15.4Z"/><path fill="#bb9364" stroke="#bb9364" stroke-width=".25" d="M50.1,46.4L64.5,42.7L46.3,34.8Z"/><path fill="#ffdaa3" stroke="#ffdaa3" stroke-width=".25" d="M63.1,16.6L58.7,14.9L58.1,16.1Z"/><path fill="#bb9364" stroke="#bb9364" stroke-width=".25" d="M64.5,42.7L69.6,28.8L46.3,34.8Z"/><path fill="#9f7d54" stroke="#9f7d54" stroke-width=".25" d="M66.1,68.7L74.4,56.4L50.1,46.4Z"/><path fill="#f6cf9a" stroke="#f6cf9a" stroke-width=".25" d="M63.1,19.3L63.0,18.0L58.7,17.5Z"/><path fill="#ffe7ad" stroke="#ffe7ad" stroke-width=".25" d="M63.3,16.5L59.8,15.1L58.7,14.9Z"/><path fill="#f6cf9a" stroke="#f6cf9a" stroke-width=".25" d="M64.6,17.0L64.7,18.2L67.6,18.1Z"/><path fill="#ffdaa3" stroke="#ffdaa3" stroke-width=".25" d="M63.0,18.0L63.1,16.6L58.1,16.1Z"/><path fill="#9c7a52" stroke="#9c7a52" stroke-width=".25" d="M82.7,33.9L69.6,28.8L64.5,42.7Z"/><path fill="#f6cf9a" stroke="#f6cf9a" stroke-width=".25" d="M64.7,18.2L68.2,19.6L67.6,18.1Z"/><path fill="#ffdaa3" stroke="#ffdaa3" stroke-width=".25" d="M64.7,15.6L64.6,17.0L68.2,16.9Z"/><path fill="#ffe7ad" stroke="#ffe7ad" stroke-width=".25" d="M63.1,16.6L63.3,16.5L58.7,14.9Z"/><path fill="#ffe7ad" stroke="#ffe7ad" stroke-width=".25" d="M64.9,15.4L64.7,15.6L69.3,17.2Z"/><path fill="#ffdaa3" stroke="#ffdaa3" stroke-width=".25" d="M64.6,17.0L67.6,18.1L68.2,16.9Z"/><path fill="#57635f" stroke="#57635f" stroke-width=".25" d="M48.3,34.0L56.0,35.6L44.2,22.3Z"/><path fill="#9c7a52" stroke="#9c7a52" stroke-width=".25" d="M74.4,56.4L85.7,51.0L64.5,42.7Z"/><path fill="#ffe7ad" stroke="#ffe7ad" stroke-width=".25" d="M64.7,15.6L68.2,16.9L69.3,17.2Z"/><path fill="#f1ca97" stroke="#f1ca97" stroke-width=".25" d="M67.6,18.1L68.2,19.6L68.5,18.8Z"/><path fill="#f4cc99" stroke="#f4cc99" stroke-width=".25" d="M68.5,19.5L63.0,18.0L63.1,19.3Z"/><path fill="#464f4b" stroke="#464f4b" stroke-width=".25" d="M68.3,38.7L68.1,39.0L76.5,29.9Z"/><path fill="#f1ca97" stroke="#f1ca97" stroke-width=".25" d="M68.2,19.6L69.2,20.4L68.5,18.8Z"/><path fill="#ffe7ad" stroke="#ffe7ad" stroke-width=".25" d="M67.2,17.5L63.3,16.5L63.1,16.6Z"/><path fill="#ffd8a1" stroke="#ffd8a1" stroke-width=".25" d="M68.0,18.0L63.1,16.6L63.0,18.0Z"/><path fill="#f4cc99" stroke="#f4cc99" stroke-width=".25" d="M68.0,20.6L68.5,19.5L63.1,19.3Z"/><path fill="#ffe2a9" stroke="#ffe2a9" stroke-width=".25" d="M68.2,16.9L67.6,18.1L69.2,17.7Z"/><path fill="#ffe2a9" stroke="#ffe2a9" stroke-width=".25" d="M67.6,18.1L68.5,18.8L69.2,17.7Z"/><path fill="#4a5450" stroke="#4a5450" stroke-width=".25" d="M81.4,24.7L77.3,13.0L69.3,21.3Z"/><path fill="#ffd8a1" stroke="#ffd8a1" stroke-width=".25" d="M68.5,19.5L68.0,18.0L63.0,18.0Z"/><path fill="#ffe7ad" stroke="#ffe7ad" stroke-width=".25" d="M68.0,18.0L67.2,17.5L63.1,16.6Z"/><path fill="#ffe7ad" stroke="#ffe7ad" stroke-width=".25" d="M69.3,17.2L68.2,16.9L70.6,18.2Z"/><path fill="#e0bc8c" stroke="#e0bc8c" stroke-width=".25" d="M70.6,20.9L71.3,19.8L68.0,20.6Z"/><path fill="#ffe7ad" stroke="#ffe7ad" stroke-width=".25" d="M68.2,16.9L69.2,17.7L70.6,18.2Z"/><path fill="#9f7d54" stroke="#9f7d54" stroke-width=".25" d="M74.4,56.4L64.5,42.7L50.1,46.4Z"/><path fill="#e0bc8c" stroke="#e0bc8c" stroke-width=".25" d="M71.3,19.8L68.5,19.5L68.0,20.6Z"/><path fill="#ffe7ad" stroke="#ffe7ad" stroke-width=".25" d="M69.2,17.7L67.2,17.5L68.0,18.0Z"/><path fill="#464f4b" stroke="#464f4b" stroke-width=".25" d="M68.3,38.7L56.0,35.6L48.3,34.0Z"/><path fill="#ffe7ad" stroke="#ffe7ad" stroke-width=".25" d="M70.6,18.2L69.2,17.7L68.0,18.0Z"/><path fill="#ffd6a0" stroke="#ffd6a0" stroke-width=".25" d="M70.6,18.2L68.0,18.0L68.5,19.5Z"/><path fill="#ffd6a0" stroke="#ffd6a0" stroke-width=".25" d="M71.3,19.8L70.6,18.2L68.5,19.5Z"/><path fill="#606c67" stroke="#606c67" stroke-width=".25" d="M69.8,10.9L57.5,8.0L49.4,16.6Z"/><path fill="#4a5450" stroke="#4a5450" stroke-width=".25" d="M77.3,13.0L69.8,10.9L69.3,21.3Z"/><path fill="#57635f" stroke="#57635f" stroke-width=".25" d="M56.6,24.9L49.4,16.6L44.2,22.3Z"/><path fill="#4a5450" stroke="#4a5450" stroke-width=".25" d="M76.5,29.9L81.4,24.7L69.3,21.3Z"/><path fill="#57635f" stroke="#57635f" stroke-width=".25" d="M56.0,35.6L56.6,24.9L44.2,22.3Z"/><path fill="#606c67" stroke="#606c67" stroke-width=".25" d="M69.3,21.3L69.8,10.9L49.4,16.6Z"/><path fill="#4c5652" stroke="#4c5652" stroke-width=".25" d="M68.3,38.7L76.5,29.9L56.6,24.9Z"/><path fill="#4c5652" stroke="#4c5652" stroke-width=".25" d="M56.0,35.6L68.3,38.7L56.6,24.9Z"/><path fill="#606c67" stroke="#606c67" stroke-width=".25" d="M56.6,24.9L69.3,21.3L49.4,16.6Z"/><path fill="#4c5652" stroke="#4c5652" stroke-width=".25" d="M76.5,29.9L69.3,21.3L56.6,24.9Z"/></svg>