<svg xmlns="http://www.w3.org/2000/svg" viewBox="0 0 128 104"><ellipse cx="64" cy="94" rx="39" ry="5" fill="#000" opacity=".16"/><path fill="#8d9692" stroke="#8d9692" stroke-width=".25" d="M48.2,50.0L39.8,49.5L51.1,53.0Z"/><path fill="#939c98" stroke="#939c98" stroke-width=".25" d="M34.4,53.3L28.7,58.3L39.8,49.5Z"/><path fill="#8d9692" stroke="#8d9692" stroke-width=".25" d="M39.8,49.5L37.5,52.2L51.1,53.0Z"/><path fill="#76807c" stroke="#76807c" stroke-width=".25" d="M51.8,42.8L43.0,40.9L51.8,46.0Z"/><path fill="#939c98" stroke="#939c98" stroke-width=".25" d="M28.7,58.3L30.7,57.7L39.8,49.5Z"/><path fill="#939c98" stroke="#939c98" stroke-width=".25" d="M30.7,57.7L37.5,52.2L39.8,49.5Z"/><path fill="#8d9692" stroke="#8d9692" stroke-width=".25" d="M37.5,52.2L44.5,54.4L51.1,53.0Z"/><path fill="#8d9692" stroke="#8d9692" stroke-width=".25" d="M48.2,32.9L39.8,32.4L51.1,35.9Z"/><path fill="#76807c" stroke="#76807c" stroke-width=".25" d="M43.0,40.9L37.6,43.1L51.8,46.0Z"/><path fill="#7b8581" stroke="#7b8581" stroke-width=".25" d="M44.8,53.4L22.0,68.1L106.0,73.6Z"/><path fill="#7e8683" stroke="#7e8683" stroke-width=".25" d="M52.6,59.0L51.1,53.0L41.9,61.2Z"/><path fill="#939c98" stroke="#939c98" stroke-width=".25" d="M34.4,36.2L28.7,41.2L39.8,32.4Z"/><path fill="#7e8683" stroke="#7e8683" stroke-width=".25" d="M51.1,53.0L44.5,54.4L41.9,61.2Z"/><path fill="#949e9a" stroke="#949e9a" stroke-width=".25" d="M44.5,54.4L37.5,52.2L30.7,57.7Z"/><path fill="#89928e" stroke="#89928e" stroke-width=".25" d="M30.2,64.2L33.1,67.3L28.7,58.3Z"/><path fill="#8d9692" stroke="#8d9692" stroke-width=".25" d="M39.8,32.4L37.5,35.1L51.1,35.9Z"/><path fill="#5c6461" stroke="#5c6461" stroke-width=".25" d="M42.4,56.7L51.4,52.5L42.7,55.9Z"/><path fill="#76807c" stroke="#76807c" stroke-width=".25" d="M37.6,43.1L43.0,46.2L51.8,46.0Z"/><path fill="#717b77" stroke="#717b77" stroke-width=".25" d="M28.3,53.8L28.3,57.0L28.5,47.8Z"/><path fill="#7e8683" stroke="#7e8683" stroke-width=".25" d="M46.9,64.0L52.6,59.0L41.9,61.2Z"/><path fill="#5c6461" stroke="#5c6461" stroke-width=".25" d="M51.4,52.5L51.6,52.0L42.7,55.9Z"/><path fill="#89928e" stroke="#89928e" stroke-width=".25" d="M33.4,63.2L30.7,57.7L28.7,58.3Z"/><path fill="#76807c" stroke="#76807c" stroke-width=".25" d="M51.8,25.7L43.0,23.9L51.8,28.9Z"/><path fill="#7d8884" stroke="#7d8884" stroke-width=".25" d="M43.0,46.2L37.6,43.1L28.7,47.3Z"/><path fill="#949e9a" stroke="#949e9a" stroke-width=".25" d="M41.9,61.2L44.5,54.4L30.7,57.7Z"/><path fill="#542a1e" stroke="#542a1e" stroke-width=".25" d="M52.9,60.0L40.3,68.2L86.8,71.3Z"/><path fill="#717b77" stroke="#717b77" stroke-width=".25" d="M28.5,53.0L28.7,47.3L28.5,47.8Z"/><path fill="#89928e" stroke="#89928e" stroke-width=".25" d="M33.1,67.3L33.4,63.2L28.7,58.3Z"/><path fill="#6e7874" stroke="#6e7874" stroke-width=".25" d="M51.6,52.0L51.8,46.0L37.4,52.3Z"/><path fill="#939c98" stroke="#939c98" stroke-width=".25" d="M28.7,41.2L30.7,40.6L39.8,32.4Z"/><path fill="#939c98" stroke="#939c98" stroke-width=".25" d="M30.7,40.6L37.5,35.1L39.8,32.4Z"/><path fill="#717b77" stroke="#717b77" stroke-width=".25" d="M28.3,57.0L28.5,53.0L28.5,47.8Z"/><path fill="#8d9692" stroke="#8d9692" stroke-width=".25" d="M37.5,35.1L44.5,37.3L51.1,35.9Z"/><path fill="#6e7874" stroke="#6e7874" stroke-width=".25" d="M51.8,46.0L43.0,46.2L37.4,52.3Z"/><path fill="#5c6461" stroke="#5c6461" stroke-width=".25" d="M37.0,58.8L42.4,56.7L42.7,55.9Z"/><path fill="#8d9692" stroke="#8d9692" stroke-width=".25" d="M48.2,15.8L39.8,15.3L51.1,18.9Z"/><path fill="#727a76" stroke="#727a76" stroke-width=".25" d="M41.5,67.8L46.9,64.0L33.4,63.2Z"/><path fill="#402d22" stroke="#402d22" stroke-width=".25" d="M64.8,62.9L65.8,61.8L50.9,71.5Z"/><path fill="#76807c" stroke="#76807c" stroke-width=".25" d="M43.0,23.9L37.6,26.0L51.8,28.9Z"/><path fill="#573f31" stroke="#573f31" stroke-width=".25" d="M64.3,58.4L62.7,58.1L47.7,67.8Z"/><path fill="#949e9a" stroke="#949e9a" stroke-width=".25" d="M33.4,63.2L41.9,61.2L30.7,57.7Z"/><path fill="#727a76" stroke="#727a76" stroke-width=".25" d="M33.1,67.3L41.5,67.8L33.4,63.2Z"/><path fill="#7d8884" stroke="#7d8884" stroke-width=".25" d="M37.4,52.3L43.0,46.2L28.7,47.3Z"/><path fill="#7e8683" stroke="#7e8683" stroke-width=".25" d="M52.6,41.9L51.1,35.9L41.9,44.1Z"/><path fill="#402d22" stroke="#402d22" stroke-width=".25" d="M65.8,61.8L65.6,60.0L50.7,69.7Z"/><path fill="#727a76" stroke="#727a76" stroke-width=".25" d="M46.9,64.0L41.9,61.2L33.4,63.2Z"/><path fill="#4e382c" stroke="#4e382c" stroke-width=".25" d="M65.6,60.0L64.3,58.4L49.3,68.1Z"/><path fill="#6e7874" stroke="#6e7874" stroke-width=".25" d="M42.7,55.9L51.6,52.0L37.4,52.3Z"/><path fill="#939c98" stroke="#939c98" stroke-width=".25" d="M34.4,19.1L28.7,24.1L39.8,15.3Z"/><path fill="#7d8884" stroke="#7d8884" stroke-width=".25" d="M28.5,53.0L37.4,52.3L28.7,47.3Z"/><path fill="#666f6c" stroke="#666f6c" stroke-width=".25" d="M28.3,57.0L37.0,58.8L28.5,53.0Z"/><path fill="#7e8683" stroke="#7e8683" stroke-width=".25" d="M51.1,35.9L44.5,37.3L41.9,44.1Z"/><path fill="#949e9a" stroke="#949e9a" stroke-width=".25" d="M44.5,37.3L37.5,35.1L30.7,40.6Z"/><path fill="#666f6c" stroke="#666f6c" stroke-width=".25" d="M37.0,58.8L42.7,55.9L28.5,53.0Z"/><path fill="#89928e" stroke="#89928e" stroke-width=".25" d="M30.2,47.2L33.1,50.2L28.7,41.2Z"/><path fill="#8d9692" stroke="#8d9692" stroke-width=".25" d="M39.8,15.3L37.5,18.1L51.1,18.9Z"/><path fill="#5c6461" stroke="#5c6461" stroke-width=".25" d="M42.4,39.6L51.4,35.4L42.7,38.9Z"/><path fill="#76807c" stroke="#76807c" stroke-width=".25" d="M37.6,26.0L43.0,29.1L51.8,28.9Z"/><path fill="#666f6c" stroke="#666f6c" stroke-width=".25" d="M42.7,55.9L37.4,52.3L28.5,53.0Z"/><path fill="#717b77" stroke="#717b77" stroke-width=".25" d="M28.3,36.7L28.3,39.9L28.5,30.7Z"/><path fill="#7e8683" stroke="#7e8683" stroke-width=".25" d="M46.9,46.9L52.6,41.9L41.9,44.1Z"/><path fill="#55605c" stroke="#55605c" stroke-width=".25" d="M41.5,11.4L41.5,64.2L97.4,29.9Z"/><path fill="#6f7673" stroke="#6f7673" stroke-width=".25" d="M54.0,16.5L54.2,12.5L52.6,21.5Z"/><path fill="#5c6461" stroke="#5c6461" stroke-width=".25" d="M51.4,35.4L51.6,35.0L42.7,38.9Z"/><path fill="#8c9692" stroke="#8c9692" stroke-width=".25" d="M54.2,12.5L45.7,10.7L53.3,15.6Z"/><path fill="#402d22" stroke="#402d22" stroke-width=".25" d="M49.9,72.6L64.8,62.9L50.9,71.5Z"/><path fill="#89928e" stroke="#89928e" stroke-width=".25" d="M33.4,46.1L30.7,40.6L28.7,41.2Z"/><path fill="#7d8884" stroke="#7d8884" stroke-width=".25" d="M43.0,29.1L37.6,26.0L28.7,30.2Z"/><path fill="#949e9a" stroke="#949e9a" stroke-width=".25" d="M41.9,44.1L44.5,37.3L30.7,40.6Z"/><path fill="#717b77" stroke="#717b77" stroke-width=".25" d="M28.5,35.9L28.7,30.2L28.5,30.7Z"/><path fill="#6f7673" stroke="#6f7673" stroke-width=".25" d="M53.0,22.1L54.0,16.5L52.6,21.5Z"/><path fill="#573f31" stroke="#573f31" stroke-width=".25" d="M49.3,68.1L64.3,58.4L47.7,67.8Z"/><path fill="#402d22" stroke="#402d22" stroke-width=".25" d="M50.9,71.5L65.8,61.8L50.7,69.7Z"/><path fill="#89928e" stroke="#89928e" stroke-width=".25" d="M33.1,50.2L33.4,46.1L28.7,41.2Z"/><path fill="#6e7874" stroke="#6e7874" stroke-width=".25" d="M51.6,35.0L51.8,28.9L37.4,35.2Z"/><path fill="#939c98" stroke="#939c98" stroke-width=".25" d="M28.7,24.1L30.7,23.5L39.8,15.3Z"/><path fill="#563e30" stroke="#563e30" stroke-width=".25" d="M75.8,62.2L74.5,62.9L59.5,72.6Z"/><path fill="#4e382c" stroke="#4e382c" stroke-width=".25" d="M50.7,69.7L65.6,60.0L49.3,68.1Z"/><path fill="#939c98" stroke="#939c98" stroke-width=".25" d="M30.7,23.5L37.5,18.1L39.8,15.3Z"/><path fill="#55605c" stroke="#55605c" stroke-width=".25" d="M41.5,64.2L97.4,82.7L97.4,29.9Z"/><path fill="#4c251b" stroke="#4c251b" stroke-width=".25" d="M40.3,68.2L40.3,69.7L74.2,79.4Z"/><path fill="#717b77" stroke="#717b77" stroke-width=".25" d="M28.3,39.9L28.5,35.9L28.5,30.7Z"/><path fill="#8d9692" stroke="#8d9692" stroke-width=".25" d="M37.5,18.1L44.5,20.2L51.1,18.9Z"/><path fill="#6e7874" stroke="#6e7874" stroke-width=".25" d="M51.8,28.9L43.0,29.1L37.4,35.2Z"/><path fill="#5c6461" stroke="#5c6461" stroke-width=".25" d="M37.0,41.8L42.4,39.6L42.7,38.9Z"/><path fill="#8c9692" stroke="#8c9692" stroke-width=".25" d="M45.7,10.7L39.5,12.7L53.3,15.6Z"/><path fill="#553e30" stroke="#553e30" stroke-width=".25" d="M77.5,63.0L75.8,62.2L60.9,71.9Z"/><path fill="#727a76" stroke="#727a76" stroke-width=".25" d="M41.5,50.7L46.9,46.9L33.4,46.1Z"/><path fill="#402d22" stroke="#402d22" stroke-width=".25" d="M78.2,66.5L78.5,64.8L63.5,74.5Z"/><path fill="#6f7673" stroke="#6f7673" stroke-width=".25" d="M54.2,12.5L53.3,15.6L52.6,21.5Z"/><path fill="#707976" stroke="#707976" stroke-width=".25" d="M22.0,68.1L22.0,75.7L83.2,88.4Z"/><path fill="#493428" stroke="#493428" stroke-width=".25" d="M78.5,64.8L77.5,63.0L62.5,72.7Z"/><path fill="#949e9a" stroke="#949e9a" stroke-width=".25" d="M33.4,46.1L41.9,44.1L30.7,40.6Z"/><path fill="#727a76" stroke="#727a76" stroke-width=".25" d="M33.1,50.2L41.5,50.7L33.4,46.1Z"/><path fill="#7d8884" stroke="#7d8884" stroke-width=".25" d="M37.4,35.2L43.0,29.1L28.7,30.2Z"/><path fill="#7e8683" stroke="#7e8683" stroke-width=".25" d="M52.6,24.8L51.1,18.9L41.9,27.0Z"/><path fill="#727a76" stroke="#727a76" stroke-width=".25" d="M46.9,46.9L41.9,44.1L33.4,46.1Z"/><path fill="#5e6965" stroke="#5e6965" stroke-width=".25" d="M46.8,8.0L41.5,11.4L102.6,26.5Z"/><path fill="#d3a14c" stroke="#d3a14c" stroke-width=".25" d="M64.0,67.8L63.9,66.7L61.4,58.3Z"/><path fill="#542a1e" stroke="#542a1e" stroke-width=".25" d="M40.3,68.2L74.2,79.4L86.8,71.3Z"/><path fill="#d36333" stroke="#d36333" stroke-width=".25" d="M65.2,67.5L65.0,65.9L61.4,58.8Z"/><path fill="#6e7874" stroke="#6e7874" stroke-width=".25" d="M42.7,38.9L51.6,35.0L37.4,35.2Z"/><path fill="#4e382b" stroke="#4e382b" stroke-width=".25" d="M46.9,70.8L48.2,72.3L48.8,70.2Z"/><path fill="#ffcf64" stroke="#ffcf64" stroke-width=".25" d="M58.5,67.4L59.7,68.4L61.4,58.3Z"/><path fill="#4e382b" stroke="#4e382b" stroke-width=".25" d="M46.7,68.9L46.9,70.8L48.8,70.2Z"/><path fill="#4e382b" stroke="#4e382b" stroke-width=".25" d="M48.2,72.3L49.9,72.6L48.8,70.2Z"/><path fill="#daa74f" stroke="#daa74f" stroke-width=".25" d="M62.2,68.6L64.0,67.8L61.4,58.3Z"/><path fill="#ff8346" stroke="#ff8346" stroke-width=".25" d="M57.3,66.9L59.0,68.3L61.4,58.8Z"/><path fill="#76817d" stroke="#76817d" stroke-width=".25" d="M63.9,15.5L55.3,14.8L63.9,17.8Z"/><path fill="#5c6461" stroke="#5c6461" stroke-width=".25" d="M64.1,19.7L63.9,15.5L64.2,23.4Z"/><path fill="#3e1d14" stroke="#3e1d14" stroke-width=".25" d="M74.2,80.9L86.8,72.7L86.8,71.3Z"/><path fill="#7d8884" stroke="#7d8884" stroke-width=".25" d="M28.5,35.9L37.4,35.2L28.7,30.2Z"/><path fill="#ffc45e" stroke="#ffc45e" stroke-width=".25" d="M59.7,68.4L62.2,68.6L61.4,58.3Z"/><path fill="#4e382b" stroke="#4e382b" stroke-width=".25" d="M47.7,67.8L46.7,68.9L48.8,70.2Z"/><path fill="#666f6c" stroke="#666f6c" stroke-width=".25" d="M28.3,39.9L37.0,41.8L28.5,35.9Z"/><path fill="#7e8683" stroke="#7e8683" stroke-width=".25" d="M51.1,18.9L44.5,20.2L41.9,27.0Z"/><path fill="#e46b38" stroke="#e46b38" stroke-width=".25" d="M62.5,68.6L65.2,67.5L61.4,58.8Z"/><path fill="#949e9a" stroke="#949e9a" stroke-width=".25" d="M44.5,20.2L37.5,18.1L30.7,23.5Z"/><path fill="#4e382b" stroke="#4e382b" stroke-width=".25" d="M49.9,72.6L50.9,71.5L48.8,70.2Z"/><path fill="#666f6c" stroke="#666f6c" stroke-width=".25" d="M37.0,41.8L42.7,38.9L28.5,35.9Z"/><path fill="#ff7c42" stroke="#ff7c42" stroke-width=".25" d="M59.0,68.3L62.5,68.6L61.4,58.8Z"/><path fill="#4e382b" stroke="#4e382b" stroke-width=".25" d="M49.3,68.1L47.7,67.8L48.8,70.2Z"/><path fill="#6f7673" stroke="#6f7673" stroke-width=".25" d="M43.7,26.2L53.0,22.1L43.0,25.3Z"/><path fill="#89928e" stroke="#89928e" stroke-width=".25" d="M30.2,30.1L33.1,33.1L28.7,24.1Z"/><path fill="#4e382b" stroke="#4e382b" stroke-width=".25" d="M50.9,71.5L50.7,69.7L48.8,70.2Z"/><path fill="#8c9692" stroke="#8c9692" stroke-width=".25" d="M39.5,12.7L44.3,15.7L53.3,15.6Z"/><path fill="#4e382b" stroke="#4e382b" stroke-width=".25" d="M50.7,69.7L49.3,68.1L48.8,70.2Z"/><path fill="#8d9792" stroke="#8d9792" stroke-width=".25" d="M98.8,66.8L89.9,65.9L99.1,69.1Z"/><path fill="#5c6461" stroke="#5c6461" stroke-width=".25" d="M64.3,24.6L64.1,19.7L64.2,23.4Z"/><path fill="#666f6c" stroke="#666f6c" stroke-width=".25" d="M42.7,38.9L37.4,35.2L28.5,35.9Z"/><path fill="#6f7673" stroke="#6f7673" stroke-width=".25" d="M53.0,22.1L52.6,21.5L43.0,25.3Z"/><path fill="#7b8581" stroke="#7b8581" stroke-width=".25" d="M22.0,68.1L83.2,88.4L106.0,73.6Z"/><path fill="#7e8683" stroke="#7e8683" stroke-width=".25" d="M46.9,29.8L52.6,24.8L41.9,27.0Z"/><path fill="#563e30" stroke="#563e30" stroke-width=".25" d="M60.9,71.9L75.8,62.2L59.5,72.6Z"/><path fill="#959f9b" stroke="#959f9b" stroke-width=".25" d="M44.3,15.7L39.5,12.7L30.3,16.8Z"/><path fill="#5c6461" stroke="#5c6461" stroke-width=".25" d="M83.2,96.0L106.0,81.2L106.0,73.6Z"/><path fill="#402d22" stroke="#402d22" stroke-width=".25" d="M63.3,76.2L78.2,66.5L63.5,74.5Z"/><path fill="#89928e" stroke="#89928e" stroke-width=".25" d="M33.4,29.0L30.7,23.5L28.7,24.1Z"/><path fill="#76817d" stroke="#76817d" stroke-width=".25" d="M55.3,14.8L49.9,16.7L63.9,17.8Z"/><path fill="#4c251b" stroke="#4c251b" stroke-width=".25" d="M40.3,69.7L74.2,80.9L74.2,79.4Z"/><path fill="#5c6461" stroke="#5c6461" stroke-width=".25" d="M63.9,15.5L63.9,17.8L64.2,23.4Z"/><path fill="#464f4b" stroke="#464f4b" stroke-width=".25" d="M97.4,82.7L102.6,79.3L102.6,26.5Z"/><path fill="#553e30" stroke="#553e30" stroke-width=".25" d="M62.5,72.7L77.5,63.0L60.9,71.9Z"/><path fill="#949e9a" stroke="#949e9a" stroke-width=".25" d="M41.9,27.0L44.5,20.2L30.7,23.5Z"/><path fill="#493428" stroke="#493428" stroke-width=".25" d="M63.5,74.5L78.5,64.8L62.5,72.7Z"/><path fill="#838c88" stroke="#838c88" stroke-width=".25" d="M52.6,21.5L53.3,15.6L37.9,21.7Z"/><path fill="#77827e" stroke="#77827e" stroke-width=".25" d="M94.9,57.1L86.5,57.5L98.1,59.2Z"/><path fill="#89928e" stroke="#89928e" stroke-width=".25" d="M33.1,33.1L33.4,29.0L28.7,24.1Z"/><path fill="#8d9792" stroke="#8d9792" stroke-width=".25" d="M89.9,65.9L84.7,67.7L99.1,69.1Z"/><path fill="#6f7673" stroke="#6f7673" stroke-width=".25" d="M37.6,28.2L43.7,26.2L43.0,25.3Z"/><path fill="#838c88" stroke="#838c88" stroke-width=".25" d="M53.3,15.6L44.3,15.7L37.9,21.7Z"/><path fill="#3e1d14" stroke="#3e1d14" stroke-width=".25" d="M74.2,79.4L74.2,80.9L86.8,71.3Z"/><path fill="#727a76" stroke="#727a76" stroke-width=".25" d="M41.5,33.6L46.9,29.8L33.4,29.0Z"/><path fill="#959f9b" stroke="#959f9b" stroke-width=".25" d="M37.9,21.7L44.3,15.7L30.3,16.8Z"/><path fill="#8d9692" stroke="#8d9692" stroke-width=".25" d="M73.9,18.7L65.6,17.9L75.1,21.8Z"/><path fill="#949e9a" stroke="#949e9a" stroke-width=".25" d="M33.4,29.0L41.9,27.0L30.7,23.5Z"/><path fill="#7a8580" stroke="#7a8580" stroke-width=".25" d="M81.6,62.0L76.5,67.2L86.5,57.5Z"/><path fill="#727a76" stroke="#727a76" stroke-width=".25" d="M33.1,33.1L41.5,33.6L33.4,29.0Z"/><path fill="#4e382b" stroke="#4e382b" stroke-width=".25" d="M59.3,74.3L60.3,76.1L61.4,74.4Z"/><path fill="#838c88" stroke="#838c88" stroke-width=".25" d="M43.0,25.3L52.6,21.5L37.9,21.7Z"/><path fill="#727a76" stroke="#727a76" stroke-width=".25" d="M46.9,29.8L41.9,27.0L33.4,29.0Z"/><path fill="#4e382b" stroke="#4e382b" stroke-width=".25" d="M60.3,76.1L62.0,76.9L61.4,74.4Z"/><path fill="#4e382b" stroke="#4e382b" stroke-width=".25" d="M59.5,72.6L59.3,74.3L61.4,74.4Z"/><path fill="#76817d" stroke="#76817d" stroke-width=".25" d="M49.9,16.7L55.3,18.6L63.9,17.8Z"/><path fill="#959f9b" stroke="#959f9b" stroke-width=".25" d="M29.3,22.4L37.9,21.7L30.3,16.8Z"/><path fill="#7a837f" stroke="#7a837f" stroke-width=".25" d="M29.0,26.4L37.6,28.2L29.3,22.4Z"/><path fill="#4e382b" stroke="#4e382b" stroke-width=".25" d="M62.0,76.9L63.3,76.2L61.4,74.4Z"/><path fill="#5c6461" stroke="#5c6461" stroke-width=".25" d="M55.9,29.6L64.3,24.6L55.7,27.7Z"/><path fill="#4e382b" stroke="#4e382b" stroke-width=".25" d="M60.9,71.9L59.5,72.6L61.4,74.4Z"/><path fill="#7a837f" stroke="#7a837f" stroke-width=".25" d="M37.6,28.2L43.0,25.3L29.3,22.4Z"/><path fill="#77827e" stroke="#77827e" stroke-width=".25" d="M86.5,57.5L84.5,59.9L98.1,59.2Z"/><path fill="#707976" stroke="#707976" stroke-width=".25" d="M22.0,75.7L83.2,96.0L83.2,88.4Z"/><path fill="#5c6461" stroke="#5c6461" stroke-width=".25" d="M64.3,24.6L64.2,23.4L55.7,27.7Z"/><path fill="#4e382b" stroke="#4e382b" stroke-width=".25" d="M63.3,76.2L63.5,74.5L61.4,74.4Z"/><path fill="#4e382b" stroke="#4e382b" stroke-width=".25" d="M62.5,72.7L60.9,71.9L61.4,74.4Z"/><path fill="#8d9792" stroke="#8d9792" stroke-width=".25" d="M84.7,67.7L90.4,69.7L99.1,69.1Z"/><path fill="#4e382b" stroke="#4e382b" stroke-width=".25" d="M63.5,74.5L62.5,72.7L61.4,74.4Z"/><path fill="#7e8984" stroke="#7e8984" stroke-width=".25" d="M55.3,18.6L49.9,16.7L41.5,21.7Z"/><path fill="#7a837f" stroke="#7a837f" stroke-width=".25" d="M43.0,25.3L37.9,21.7L29.3,22.4Z"/><path fill="#6f7673" stroke="#6f7673" stroke-width=".25" d="M91.0,80.8L99.5,76.0L91.1,79.0Z"/><path fill="#848d89" stroke="#848d89" stroke-width=".25" d="M76.6,79.4L76.9,81.8L76.2,73.7Z"/><path fill="#8d9692" stroke="#8d9692" stroke-width=".25" d="M65.6,17.9L61.6,20.4L75.1,21.8Z"/><path fill="#8d9792" stroke="#8d9792" stroke-width=".25" d="M98.8,49.7L89.9,48.8L99.1,52.1Z"/><path fill="#6f7975" stroke="#6f7975" stroke-width=".25" d="M64.2,23.4L63.9,17.8L50.2,24.7Z"/><path fill="#96a09c" stroke="#96a09c" stroke-width=".25" d="M90.4,69.7L84.7,67.7L76.2,72.5Z"/><path fill="#6f7673" stroke="#6f7673" stroke-width=".25" d="M99.5,76.0L99.5,74.9L91.1,79.0Z"/><path fill="#6f7975" stroke="#6f7975" stroke-width=".25" d="M63.9,17.8L55.3,18.6L50.2,24.7Z"/><path fill="#848d89" stroke="#848d89" stroke-width=".25" d="M76.7,77.5L76.2,72.5L76.2,73.7Z"/><path fill="#5e6965" stroke="#5e6965" stroke-width=".25" d="M41.5,11.4L97.4,29.9L102.6,26.5Z"/><path fill="#7a8580" stroke="#7a8580" stroke-width=".25" d="M76.5,67.2L78.3,65.9L86.5,57.5Z"/><path fill="#7a8580" stroke="#7a8580" stroke-width=".25" d="M78.3,65.9L84.5,59.9L86.5,57.5Z"/><path fill="#868f8b" stroke="#868f8b" stroke-width=".25" d="M99.5,74.9L99.1,69.1L85.4,75.8Z"/><path fill="#5c6461" stroke="#5c6461" stroke-width=".25" d="M50.6,31.5L55.9,29.6L55.7,27.7Z"/><path fill="#77827d" stroke="#77827d" stroke-width=".25" d="M83.2,21.9L75.0,22.2L85.3,24.1Z"/><path fill="#77827e" stroke="#77827e" stroke-width=".25" d="M84.5,59.9L91.6,60.9L98.1,59.2Z"/><path fill="#868f8b" stroke="#868f8b" stroke-width=".25" d="M99.1,69.1L90.4,69.7L85.4,75.8Z"/><path fill="#77827e" stroke="#77827e" stroke-width=".25" d="M94.9,40.0L86.5,40.4L98.1,42.1Z"/><path fill="#7e8984" stroke="#7e8984" stroke-width=".25" d="M50.2,24.7L55.3,18.6L41.5,21.7Z"/><path fill="#8d9792" stroke="#8d9792" stroke-width=".25" d="M89.9,48.8L84.7,50.6L99.1,52.1Z"/><path fill="#5c6461" stroke="#5c6461" stroke-width=".25" d="M83.2,88.4L83.2,96.0L106.0,73.6Z"/><path fill="#848d89" stroke="#848d89" stroke-width=".25" d="M76.9,81.8L76.7,77.5L76.2,73.7Z"/><path fill="#6f7673" stroke="#6f7673" stroke-width=".25" d="M66.8,33.4L74.7,28.3L68.3,32.4Z"/><path fill="#6f7673" stroke="#6f7673" stroke-width=".25" d="M85.8,82.7L91.0,80.8L91.1,79.0Z"/><path fill="#6f7975" stroke="#6f7975" stroke-width=".25" d="M55.7,27.7L64.2,23.4L50.2,24.7Z"/><path fill="#6f7673" stroke="#6f7673" stroke-width=".25" d="M74.7,28.3L75.6,27.7L68.3,32.4Z"/><path fill="#8d9692" stroke="#8d9692" stroke-width=".25" d="M61.6,20.4L67.5,22.8L75.1,21.8Z"/><path fill="#96a09c" stroke="#96a09c" stroke-width=".25" d="M85.4,75.8L90.4,69.7L76.2,72.5Z"/><path fill="#464f4b" stroke="#464f4b" stroke-width=".25" d="M97.4,29.9L97.4,82.7L102.6,26.5Z"/><path fill="#6d7673" stroke="#6d7673" stroke-width=".25" d="M100.3,64.7L98.1,59.2L89.9,67.5Z"/><path fill="#7e8984" stroke="#7e8984" stroke-width=".25" d="M41.7,26.7L50.2,24.7L41.5,21.7Z"/><path fill="#7a8580" stroke="#7a8580" stroke-width=".25" d="M81.6,44.9L76.5,50.1L86.5,40.4Z"/><path fill="#868f8b" stroke="#868f8b" stroke-width=".25" d="M91.1,79.0L99.5,74.9L85.4,75.8Z"/><path fill="#67706d" stroke="#67706d" stroke-width=".25" d="M42.0,30.9L50.6,31.5L41.7,26.7Z"/><path fill="#67706d" stroke="#67706d" stroke-width=".25" d="M50.6,31.5L55.7,27.7L41.7,26.7Z"/><path fill="#7f8784" stroke="#7f8784" stroke-width=".25" d="M75.6,27.7L75.1,21.8L63.3,29.4Z"/><path fill="#7e8984" stroke="#7e8984" stroke-width=".25" d="M91.6,60.9L84.5,59.9L78.3,65.9Z"/><path fill="#77827d" stroke="#77827d" stroke-width=".25" d="M75.0,22.2L72.0,24.6L85.3,24.1Z"/><path fill="#96a09c" stroke="#96a09c" stroke-width=".25" d="M76.7,77.5L85.4,75.8L76.2,72.5Z"/><path fill="#6d7673" stroke="#6d7673" stroke-width=".25" d="M98.1,59.2L91.6,60.9L89.9,67.5Z"/><path fill="#7d8581" stroke="#7d8581" stroke-width=".25" d="M76.9,81.8L85.8,82.7L76.7,77.5Z"/><path fill="#67706d" stroke="#67706d" stroke-width=".25" d="M55.7,27.7L50.2,24.7L41.7,26.7Z"/><path fill="#959f9a" stroke="#959f9a" stroke-width=".25" d="M67.5,22.8L61.6,20.4L53.8,25.5Z"/><path fill="#77827e" stroke="#77827e" stroke-width=".25" d="M86.5,40.4L84.5,42.8L98.1,42.1Z"/><path fill="#88918d" stroke="#88918d" stroke-width=".25" d="M53.3,32.1L54.6,35.1L52.8,26.1Z"/><path fill="#7d8581" stroke="#7d8581" stroke-width=".25" d="M85.8,82.7L91.1,79.0L76.7,77.5Z"/><path fill="#707a76" stroke="#707a76" stroke-width=".25" d="M78.8,72.7L81.9,74.8L76.5,67.2Z"/><path fill="#8d9792" stroke="#8d9792" stroke-width=".25" d="M84.7,50.6L90.4,52.6L99.1,52.1Z"/><path fill="#7f8784" stroke="#7f8784" stroke-width=".25" d="M75.1,21.8L67.5,22.8L63.3,29.4Z"/><path fill="#6f7673" stroke="#6f7673" stroke-width=".25" d="M62.9,36.0L66.8,33.4L68.3,32.4Z"/><path fill="#6f7673" stroke="#6f7673" stroke-width=".25" d="M91.0,63.7L99.5,58.9L91.1,61.9Z"/><path fill="#7d8581" stroke="#7d8581" stroke-width=".25" d="M91.1,79.0L85.4,75.8L76.7,77.5Z"/><path fill="#848d89" stroke="#848d89" stroke-width=".25" d="M76.6,62.3L76.9,64.7L76.2,56.6Z"/><path fill="#8d9692" stroke="#8d9692" stroke-width=".25" d="M93.0,25.3L85.3,25.4L96.3,28.1Z"/><path fill="#8d9792" stroke="#8d9792" stroke-width=".25" d="M98.8,32.6L89.9,31.7L99.1,35.0Z"/><path fill="#6d7673" stroke="#6d7673" stroke-width=".25" d="M95.2,69.8L100.3,64.7L89.9,67.5Z"/><path fill="#96a09c" stroke="#96a09c" stroke-width=".25" d="M90.4,52.6L84.7,50.6L76.2,55.4Z"/><path fill="#6f7673" stroke="#6f7673" stroke-width=".25" d="M99.5,58.9L99.5,57.8L91.1,61.9Z"/><path fill="#707a76" stroke="#707a76" stroke-width=".25" d="M81.6,70.6L78.3,65.9L76.5,67.2Z"/><path fill="#88918d" stroke="#88918d" stroke-width=".25" d="M54.8,31.1L53.8,25.5L52.8,26.1Z"/><path fill="#7e8984" stroke="#7e8984" stroke-width=".25" d="M89.9,67.5L91.6,60.9L78.3,65.9Z"/><path fill="#7f8784" stroke="#7f8784" stroke-width=".25" d="M68.3,32.4L75.6,27.7L63.3,29.4Z"/><path fill="#848d89" stroke="#848d89" stroke-width=".25" d="M76.7,60.4L76.2,55.4L76.2,56.6Z"/><path fill="#5c6461" stroke="#5c6461" stroke-width=".25" d="M79.1,36.7L85.8,30.9L80.9,34.7Z"/><path fill="#77827d" stroke="#77827d" stroke-width=".25" d="M72.0,24.6L78.4,25.8L85.3,24.1Z"/><path fill="#7a8580" stroke="#7a8580" stroke-width=".25" d="M76.5,50.1L78.3,48.8L86.5,40.4Z"/><path fill="#959f9a" stroke="#959f9a" stroke-width=".25" d="M63.3,29.4L67.5,22.8L53.8,25.5Z"/><path fill="#5c6461" stroke="#5c6461" stroke-width=".25" d="M85.8,30.9L86.9,29.6L80.9,34.7Z"/><path fill="#7a8580" stroke="#7a8580" stroke-width=".25" d="M78.3,48.8L84.5,42.8L86.5,40.4Z"/><path fill="#88918d" stroke="#88918d" stroke-width=".25" d="M54.6,35.1L54.8,31.1L52.8,26.1Z"/><path fill="#868f8b" stroke="#868f8b" stroke-width=".25" d="M99.5,57.8L99.1,52.1L85.4,58.7Z"/><path fill="#707a76" stroke="#707a76" stroke-width=".25" d="M81.9,74.8L81.6,70.6L76.5,67.2Z"/><path fill="#77827e" stroke="#77827e" stroke-width=".25" d="M84.5,42.8L91.6,43.9L98.1,42.1Z"/><path fill="#868f8b" stroke="#868f8b" stroke-width=".25" d="M99.1,52.1L90.4,52.6L85.4,58.7Z"/><path fill="#8d9792" stroke="#8d9792" stroke-width=".25" d="M89.9,31.7L84.7,33.5L99.1,35.0Z"/><path fill="#848d89" stroke="#848d89" stroke-width=".25" d="M76.9,64.7L76.7,60.4L76.2,56.6Z"/><path fill="#6f7673" stroke="#6f7673" stroke-width=".25" d="M85.8,65.6L91.0,63.7L91.1,61.9Z"/><path fill="#939d99" stroke="#939d99" stroke-width=".25" d="M80.3,29.5L75.7,34.9L85.3,25.4Z"/><path fill="#616a67" stroke="#616a67" stroke-width=".25" d="M90.3,74.3L95.2,69.8L81.6,70.6Z"/><path fill="#6d7672" stroke="#6d7672" stroke-width=".25" d="M86.9,29.6L85.3,24.1L75.6,32.3Z"/><path fill="#747c79" stroke="#747c79" stroke-width=".25" d="M62.9,36.0L68.3,32.4L54.8,31.1Z"/><path fill="#7e8984" stroke="#7e8984" stroke-width=".25" d="M81.6,70.6L89.9,67.5L78.3,65.9Z"/><path fill="#96a09c" stroke="#96a09c" stroke-width=".25" d="M85.4,58.7L90.4,52.6L76.2,55.4Z"/><path fill="#959f9a" stroke="#959f9a" stroke-width=".25" d="M54.8,31.1L63.3,29.4L53.8,25.5Z"/><path fill="#6d7673" stroke="#6d7673" stroke-width=".25" d="M100.3,47.6L98.1,42.1L89.9,50.4Z"/><path fill="#8d9692" stroke="#8d9692" stroke-width=".25" d="M85.3,25.4L83.9,28.2L96.3,28.1Z"/><path fill="#747c79" stroke="#747c79" stroke-width=".25" d="M54.6,35.1L62.9,36.0L54.8,31.1Z"/><path fill="#616a67" stroke="#616a67" stroke-width=".25" d="M81.9,74.8L90.3,74.3L81.6,70.6Z"/><path fill="#616a67" stroke="#616a67" stroke-width=".25" d="M95.2,69.8L89.9,67.5L81.6,70.6Z"/><path fill="#7e8984" stroke="#7e8984" stroke-width=".25" d="M78.4,25.8L72.0,24.6L65.3,30.5Z"/><path fill="#747c79" stroke="#747c79" stroke-width=".25" d="M68.3,32.4L63.3,29.4L54.8,31.1Z"/><path fill="#6d7672" stroke="#6d7672" stroke-width=".25" d="M85.3,24.1L78.4,25.8L75.6,32.3Z"/><path fill="#868f8b" stroke="#868f8b" stroke-width=".25" d="M91.1,61.9L99.5,57.8L85.4,58.7Z"/><path fill="#7e8984" stroke="#7e8984" stroke-width=".25" d="M91.6,43.9L84.5,42.8L78.3,48.8Z"/><path fill="#96a09c" stroke="#96a09c" stroke-width=".25" d="M76.7,60.4L85.4,58.7L76.2,55.4Z"/><path fill="#6d7673" stroke="#6d7673" stroke-width=".25" d="M98.1,42.1L91.6,43.9L89.9,50.4Z"/><path fill="#707a76" stroke="#707a76" stroke-width=".25" d="M65.8,37.2L67.8,39.4L64.2,31.7Z"/><path fill="#5c6461" stroke="#5c6461" stroke-width=".25" d="M76.1,39.1L79.1,36.7L80.9,34.7Z"/><path fill="#7d8581" stroke="#7d8581" stroke-width=".25" d="M76.9,64.7L85.8,65.6L76.7,60.4Z"/><path fill="#7d8581" stroke="#7d8581" stroke-width=".25" d="M85.8,65.6L91.1,61.9L76.7,60.4Z"/><path fill="#707a76" stroke="#707a76" stroke-width=".25" d="M78.8,55.6L81.9,57.7L76.5,50.1Z"/><path fill="#8d9792" stroke="#8d9792" stroke-width=".25" d="M84.7,33.5L90.4,35.6L99.1,35.0Z"/><path fill="#6d7672" stroke="#6d7672" stroke-width=".25" d="M80.9,34.7L86.9,29.6L75.6,32.3Z"/><path fill="#707a76" stroke="#707a76" stroke-width=".25" d="M67.6,35.2L65.3,30.5L64.2,31.7Z"/><path fill="#6f7673" stroke="#6f7673" stroke-width=".25" d="M91.0,46.7L99.5,41.8L91.1,44.8Z"/><path fill="#7d8581" stroke="#7d8581" stroke-width=".25" d="M91.1,61.9L85.4,58.7L76.7,60.4Z"/><path fill="#848d89" stroke="#848d89" stroke-width=".25" d="M76.6,45.2L76.9,47.6L76.2,39.5Z"/><path fill="#8d9692" stroke="#8d9692" stroke-width=".25" d="M83.9,28.2L90.6,29.9L96.3,28.1Z"/><path fill="#6d7673" stroke="#6d7673" stroke-width=".25" d="M95.2,52.8L100.3,47.6L89.9,50.4Z"/><path fill="#7e8984" stroke="#7e8984" stroke-width=".25" d="M75.6,32.3L78.4,25.8L65.3,30.5Z"/><path fill="#939d99" stroke="#939d99" stroke-width=".25" d="M77.9,34.1L83.9,28.2L85.3,25.4Z"/><path fill="#96a09c" stroke="#96a09c" stroke-width=".25" d="M90.4,35.6L84.7,33.5L76.2,38.4Z"/><path fill="#939d99" stroke="#939d99" stroke-width=".25" d="M75.7,34.9L77.9,34.1L85.3,25.4Z"/><path fill="#6f7673" stroke="#6f7673" stroke-width=".25" d="M99.5,41.8L99.5,40.7L91.1,44.8Z"/><path fill="#707a76" stroke="#707a76" stroke-width=".25" d="M81.6,53.5L78.3,48.8L76.5,50.1Z"/><path fill="#707a76" stroke="#707a76" stroke-width=".25" d="M67.8,39.4L67.6,35.2L64.2,31.7Z"/><path fill="#7b8380" stroke="#7b8380" stroke-width=".25" d="M98.0,33.9L96.3,28.1L88.8,36.9Z"/><path fill="#7e8984" stroke="#7e8984" stroke-width=".25" d="M89.9,50.4L91.6,43.9L78.3,48.8Z"/><path fill="#848d89" stroke="#848d89" stroke-width=".25" d="M76.7,43.4L76.2,38.4L76.2,39.5Z"/><path fill="#868f8b" stroke="#868f8b" stroke-width=".25" d="M99.5,40.7L99.1,35.0L85.4,41.6Z"/><path fill="#707a76" stroke="#707a76" stroke-width=".25" d="M81.9,57.7L81.6,53.5L76.5,50.1Z"/><path fill="#868f8b" stroke="#868f8b" stroke-width=".25" d="M99.1,35.0L90.4,35.6L85.4,41.6Z"/><path fill="#626b67" stroke="#626b67" stroke-width=".25" d="M76.1,39.1L80.9,34.7L67.6,35.2Z"/><path fill="#7b8380" stroke="#7b8380" stroke-width=".25" d="M96.3,28.1L90.6,29.9L88.8,36.9Z"/><path fill="#7e8984" stroke="#7e8984" stroke-width=".25" d="M67.6,35.2L75.6,32.3L65.3,30.5Z"/><path fill="#848d89" stroke="#848d89" stroke-width=".25" d="M76.9,47.6L76.7,43.4L76.2,39.5Z"/><path fill="#6f7673" stroke="#6f7673" stroke-width=".25" d="M85.8,48.5L91.0,46.7L91.1,44.8Z"/><path fill="#626b67" stroke="#626b67" stroke-width=".25" d="M67.8,39.4L76.1,39.1L67.6,35.2Z"/><path fill="#616a67" stroke="#616a67" stroke-width=".25" d="M90.3,57.2L95.2,52.8L81.6,53.5Z"/><path fill="#626b67" stroke="#626b67" stroke-width=".25" d="M80.9,34.7L75.6,32.3L67.6,35.2Z"/><path fill="#949e99" stroke="#949e99" stroke-width=".25" d="M90.6,29.9L83.9,28.2L77.9,34.1Z"/><path fill="#7e8984" stroke="#7e8984" stroke-width=".25" d="M81.6,53.5L89.9,50.4L78.3,48.8Z"/><path fill="#96a09c" stroke="#96a09c" stroke-width=".25" d="M85.4,41.6L90.4,35.6L76.2,38.4Z"/><path fill="#616a67" stroke="#616a67" stroke-width=".25" d="M81.9,57.7L90.3,57.2L81.6,53.5Z"/><path fill="#616a67" stroke="#616a67" stroke-width=".25" d="M95.2,52.8L89.9,50.4L81.6,53.5Z"/><path fill="#7b8380" stroke="#7b8380" stroke-width=".25" d="M93.4,39.3L98.0,33.9L88.8,36.9Z"/><path fill="#868f8b" stroke="#868f8b" stroke-width=".25" d="M91.1,44.8L99.5,40.7L85.4,41.6Z"/><path fill="#89928e" stroke="#89928e" stroke-width=".25" d="M77.4,40.7L80.7,43.5L75.7,34.9Z"/><path fill="#96a09c" stroke="#96a09c" stroke-width=".25" d="M76.7,43.4L85.4,41.6L76.2,38.4Z"/><path fill="#7d8581" stroke="#7d8581" stroke-width=".25" d="M76.9,47.6L85.8,48.5L76.7,43.4Z"/><path fill="#7d8581" stroke="#7d8581" stroke-width=".25" d="M85.8,48.5L91.1,44.8L76.7,43.4Z"/><path fill="#949e99" stroke="#949e99" stroke-width=".25" d="M88.8,36.9L90.6,29.9L77.9,34.1Z"/><path fill="#89928e" stroke="#89928e" stroke-width=".25" d="M81.0,39.4L77.9,34.1L75.7,34.9Z"/><path fill="#7d8581" stroke="#7d8581" stroke-width=".25" d="M91.1,44.8L85.4,41.6L76.7,43.4Z"/><path fill="#89928e" stroke="#89928e" stroke-width=".25" d="M80.7,43.5L81.0,39.4L75.7,34.9Z"/><path fill="#6f7673" stroke="#6f7673" stroke-width=".25" d="M88.3,43.4L93.4,39.3L81.0,39.4Z"/><path fill="#6f7673" stroke="#6f7673" stroke-width=".25" d="M93.4,39.3L88.8,36.9L81.0,39.4Z"/><path fill="#949e99" stroke="#949e99" stroke-width=".25" d="M81.0,39.4L88.8,36.9L77.9,34.1Z"/><path fill="#6f7673" stroke="#6f7673" stroke-width=".25" d="M80.7,43.5L88.3,43.4L81.0,39.4Z"/></svg>