<svg xmlns="http://www.w3.org/2000/svg" viewBox="0 0 128 104"><ellipse cx="64" cy="94" rx="39" ry="5" fill="#000" opacity=".16"/><path fill="#202f33" stroke="#202f33" stroke-width=".25" d="M10.2,38.9L10.6,38.6L10.6,33.9Z"/><path fill="#283a3f" stroke="#283a3f" stroke-width=".25" d="M9.2,38.5L10.2,38.9L10.2,34.2Z"/><path fill="#283a3f" stroke="#283a3f" stroke-width=".25" d="M9.2,33.8L9.2,38.5L10.2,34.2Z"/><path fill="#202f33" stroke="#202f33" stroke-width=".25" d="M10.2,34.2L10.2,38.9L10.6,33.9Z"/><path fill="#2d4046" stroke="#2d4046" stroke-width=".25" d="M9.6,33.6L9.2,33.8L10.6,33.9Z"/><path fill="#2d4046" stroke="#2d4046" stroke-width=".25" d="M9.2,33.8L10.2,34.2L10.6,33.9Z"/><path fill="#563e30" stroke="#563e30" stroke-width=".25" d="M11.8,30.2L8.8,32.1L120.0,66.0Z"/><path fill="#b88e60" stroke="#b88e60" stroke-width=".25" d="M9.9,33.1L8.0,34.3L118.0,68.9Z"/><path fill="#4e382b" stroke="#4e382b" stroke-width=".25" d="M8.8,32.1L8.8,38.0L117.0,67.9Z"/><path fill="#a88157" stroke="#a88157" stroke-width=".25" d="M8.0,34.3L8.0,36.9L116.2,70.1Z"/><path fill="#4e382b" stroke="#4e382b" stroke-width=".25" d="M8.8,38.0L117.0,73.8L117.0,67.9Z"/><path fill="#563e30" stroke="#563e30" stroke-width=".25" d="M8.8,32.1L117.0,67.9L120.0,66.0Z"/><path fill="#a88157" stroke="#a88157" stroke-width=".25" d="M8.0,36.9L116.2,72.7L116.2,70.1Z"/><path fill="#b88e60" stroke="#b88e60" stroke-width=".25" d="M8.0,34.3L116.2,70.1L118.0,68.9Z"/><path fill="#402d22" stroke="#402d22" stroke-width=".25" d="M117.0,73.8L120.0,71.9L120.0,66.0Z"/><path fill="#8c6b47" stroke="#8c6b47" stroke-width=".25" d="M116.2,72.7L118.0,71.5L118.0,68.9Z"/><path fill="#402d22" stroke="#402d22" stroke-width=".25" d="M117.0,67.9L117.0,73.8L120.0,66.0Z"/><path fill="#202f33" stroke="#202f33" stroke-width=".25" d="M114.6,73.4L115.0,73.2L115.0,68.5Z"/><path fill="#283a3f" stroke="#283a3f" stroke-width=".25" d="M113.6,73.1L114.6,73.4L114.6,68.7Z"/><path fill="#283a3f" stroke="#283a3f" stroke-width=".25" d="M113.6,68.4L113.6,73.1L114.6,68.7Z"/><path fill="#8c6b47" stroke="#8c6b47" stroke-width=".25" d="M116.2,70.1L116.2,72.7L118.0,68.9Z"/><path fill="#202f33" stroke="#202f33" stroke-width=".25" d="M114.6,68.7L114.6,73.4L115.0,68.5Z"/><path fill="#2d4046" stroke="#2d4046" stroke-width=".25" d="M114.0,68.1L113.6,68.4L115.0,68.5Z"/><path fill="#2d4046" stroke="#2d4046" stroke-width=".25" d="M113.6,68.4L114.6,68.7L115.0,68.5Z"/></svg>