<svg xmlns="http://www.w3.org/2000/svg" viewBox="0 0 128 104"><ellipse cx="64" cy="94" rx="39" ry="5" fill="#000" opacity=".16"/><path fill="#402d22" stroke="#402d22" stroke-width=".25" d="M34.4,76.1L44.2,69.7L44.2,11.5Z"/><path fill="#563e30" stroke="#563e30" stroke-width=".25" d="M40.2,66.2L30.3,72.6L97.7,85.2Z"/><path fill="#8c6b47" stroke="#8c6b47" stroke-width=".25" d="M43.1,76.9L50.0,72.5L50.0,15.5Z"/><path fill="#4e382b" stroke="#4e382b" stroke-width=".25" d="M30.3,74.8L34.4,76.1L34.4,17.9Z"/><path fill="#4e382b" stroke="#4e382b" stroke-width=".25" d="M30.3,72.6L30.3,77.0L87.8,91.6Z"/><path fill="#a88157" stroke="#a88157" stroke-width=".25" d="M32.0,73.3L43.1,76.9L43.1,20.0Z"/><path fill="#694a2f" stroke="#694a2f" stroke-width=".25" d="M54.6,80.8L61.5,76.3L61.5,19.3Z"/><path fill="#402d22" stroke="#402d22" stroke-width=".25" d="M34.4,17.9L34.4,76.1L44.2,11.5Z"/><path fill="#7e5a3a" stroke="#7e5a3a" stroke-width=".25" d="M43.5,77.1L54.6,80.8L54.6,23.8Z"/><path fill="#a88157" stroke="#a88157" stroke-width=".25" d="M32.0,16.3L32.0,73.3L43.1,20.0Z"/><path fill="#4e382b" stroke="#4e382b" stroke-width=".25" d="M30.3,16.6L30.3,74.8L34.4,17.9Z"/><path fill="#563e30" stroke="#563e30" stroke-width=".25" d="M30.3,72.6L87.8,91.6L97.7,85.2Z"/><path fill="#8c6b47" stroke="#8c6b47" stroke-width=".25" d="M43.1,20.0L43.1,76.9L50.0,15.5Z"/><path fill="#563e30" stroke="#563e30" stroke-width=".25" d="M40.2,10.2L30.3,16.6L44.2,11.5Z"/><path fill="#4e382b" stroke="#4e382b" stroke-width=".25" d="M30.3,77.0L87.8,96.0L87.8,91.6Z"/><path fill="#694a2f" stroke="#694a2f" stroke-width=".25" d="M66.1,84.6L73.0,80.1L73.0,23.1Z"/><path fill="#b88e60" stroke="#b88e60" stroke-width=".25" d="M38.9,11.8L32.0,16.3L50.0,15.5Z"/><path fill="#7e5a3a" stroke="#7e5a3a" stroke-width=".25" d="M55.0,80.9L66.1,84.6L66.1,27.6Z"/><path fill="#402d22" stroke="#402d22" stroke-width=".25" d="M87.8,96.0L97.7,89.6L97.7,85.2Z"/><path fill="#563e30" stroke="#563e30" stroke-width=".25" d="M30.3,16.6L34.4,17.9L44.2,11.5Z"/><path fill="#7e5a3a" stroke="#7e5a3a" stroke-width=".25" d="M43.5,20.1L43.5,77.1L54.6,23.8Z"/><path fill="#694a2f" stroke="#694a2f" stroke-width=".25" d="M54.6,23.8L54.6,80.8L61.5,19.3Z"/><path fill="#b88e60" stroke="#b88e60" stroke-width=".25" d="M32.0,16.3L43.1,20.0L50.0,15.5Z"/><path fill="#8c6b47" stroke="#8c6b47" stroke-width=".25" d="M77.6,88.4L84.5,83.9L84.5,26.9Z"/><path fill="#8b6340" stroke="#8b6340" stroke-width=".25" d="M50.4,15.6L43.5,20.1L61.5,19.3Z"/><path fill="#402d22" stroke="#402d22" stroke-width=".25" d="M87.8,91.6L87.8,96.0L97.7,85.2Z"/><path fill="#a88157" stroke="#a88157" stroke-width=".25" d="M66.5,84.7L77.6,88.4L77.6,31.4Z"/><path fill="#7e5a3a" stroke="#7e5a3a" stroke-width=".25" d="M55.0,23.9L55.0,80.9L66.1,27.6Z"/><path fill="#563e30" stroke="#563e30" stroke-width=".25" d="M40.2,8.0L30.3,14.4L97.7,27.0Z"/><path fill="#694a2f" stroke="#694a2f" stroke-width=".25" d="M66.1,27.6L66.1,84.6L73.0,23.1Z"/><path fill="#8b6340" stroke="#8b6340" stroke-width=".25" d="M43.5,20.1L54.6,23.8L61.5,19.3Z"/><path fill="#402d22" stroke="#402d22" stroke-width=".25" d="M87.8,93.8L97.7,87.4L97.7,29.2Z"/><path fill="#694a2f" stroke="#694a2f" stroke-width=".25" d="M89.1,92.2L96.0,87.7L96.0,30.7Z"/><path fill="#8b6340" stroke="#8b6340" stroke-width=".25" d="M61.9,19.4L55.0,23.9L73.0,23.1Z"/><path fill="#7e5a3a" stroke="#7e5a3a" stroke-width=".25" d="M78.0,88.5L89.1,92.2L89.1,35.2Z"/><path fill="#a88157" stroke="#a88157" stroke-width=".25" d="M66.5,27.7L66.5,84.7L77.6,31.4Z"/><path fill="#4e382b" stroke="#4e382b" stroke-width=".25" d="M30.3,14.4L30.3,18.8L87.8,33.4Z"/><path fill="#8c6b47" stroke="#8c6b47" stroke-width=".25" d="M77.6,31.4L77.6,88.4L84.5,26.9Z"/><path fill="#8b6340" stroke="#8b6340" stroke-width=".25" d="M55.0,23.9L66.1,27.6L73.0,23.1Z"/><path fill="#4e382b" stroke="#4e382b" stroke-width=".25" d="M83.8,92.5L87.8,93.8L87.8,35.6Z"/><path fill="#b88e60" stroke="#b88e60" stroke-width=".25" d="M73.4,23.2L66.5,27.7L84.5,26.9Z"/><path fill="#7e5a3a" stroke="#7e5a3a" stroke-width=".25" d="M78.0,31.5L78.0,88.5L89.1,35.2Z"/><path fill="#563e30" stroke="#563e30" stroke-width=".25" d="M30.3,14.4L87.8,33.4L97.7,27.0Z"/><path fill="#694a2f" stroke="#694a2f" stroke-width=".25" d="M89.1,35.2L89.1,92.2L96.0,30.7Z"/><path fill="#b88e60" stroke="#b88e60" stroke-width=".25" d="M66.5,27.7L77.6,31.4L84.5,26.9Z"/><path fill="#402d22" stroke="#402d22" stroke-width=".25" d="M87.8,35.6L87.8,93.8L97.7,29.2Z"/><path fill="#8b6340" stroke="#8b6340" stroke-width=".25" d="M84.9,27.1L78.0,31.5L96.0,30.7Z"/><path fill="#4e382b" stroke="#4e382b" stroke-width=".25" d="M30.3,18.8L87.8,37.8L87.8,33.4Z"/><path fill="#4e382b" stroke="#4e382b" stroke-width=".25" d="M83.8,34.3L83.8,92.5L87.8,35.6Z"/><path fill="#563e30" stroke="#563e30" stroke-width=".25" d="M93.6,27.9L83.8,34.3L97.7,29.2Z"/><path fill="#402d22" stroke="#402d22" stroke-width=".25" d="M87.8,37.8L97.7,31.4L97.7,27.0Z"/><path fill="#8b6340" stroke="#8b6340" stroke-width=".25" d="M78.0,31.5L89.1,35.2L96.0,30.7Z"/><path fill="#563e30" stroke="#563e30" stroke-width=".25" d="M83.8,34.3L87.8,35.6L97.7,29.2Z"/><path fill="#402d22" stroke="#402d22" stroke-width=".25" d="M87.8,33.4L87.8,37.8L97.7,27.0Z"/></svg>